<?xml version="1.0" encoding="utf-8"?>
<!-- Svg Vector Icons : http://www.onlinewebfonts.com/icon -->
<!DOCTYPE svg PUBLIC "-//W3C//DTD SVG 1.1//EN" "http://www.w3.org/Graphics/SVG/1.1/DTD/svg11.dtd">
<svg version="1.1" xmlns="http://www.w3.org/2000/svg" xmlns:xlink="http://www.w3.org/1999/xlink" x="0px" y="0px" viewBox="0 0 1000 1000" enable-background="new 0 0 1000 1000" xml:space="preserve">
<metadata> Svg Vector Icons : http://www.onlinewebfonts.com/icon </metadata>
<g><g transform="translate(0.000000,512.000000) scale(0.100000,-0.100000)">
    <path d="M1313.3,4075.5c-842.8-842.8-884.9-888.8-884.9-953.9c0-57.5,13.4-82.4,76.6-139.8c145.6-132.2,120.7-149.4,814,544l612.9,612.9l91.9-90l90-91.9L1501,3343.8c-570.8-572.7-612.9-618.7-612.9-681.9c0-93.8,116.8-208.8,210.7-208.8c61.3,0,113,46,680,612.9l612.9,612.9l95.8-95.8l95.8-95.8l-618.7-618.7c-687.6-687.6-670.4-662.7-549.7-796.8c76.6-84.3,143.7-109.2,206.9-76.6c23,11.5,312.2,289.2,639.7,616.7l599.5,597.6l90-91.9l91.9-90l-618.7-618.7c-699.1-701-676.1-666.6-532.5-810.2c143.7-143.7,109.2-166.6,810.2,532.5l618.7,618.7l90-91.9l91.9-90L2905,1968.5c-329.4-327.5-607.2-620.6-616.7-649.3c-26.8-70.9-3.8-128.3,82.4-203c137.9-120.7,116.8-134.1,806.4,551.6l614.8,612.9l90-91.9l90-90L3359,1485.9c-574.6-574.6-612.9-616.8-612.9-680c0-95.8,114.9-210.7,210.7-210.7c61.3,0,113,47.9,680,612.9l612.9,612.9l91.9-90l90-91.9l-406.1-409.9c-243.3-245.2-371.6-383.1-316-346.7c247.1,174.3,1411.6,1116.7,1411.6,1145.4c0,7.7-657,670.4-1461.4,1474.8L2200.2,4962.3L1313.3,4075.5z" style="fill:rgb(228,186,159);"/>
    <path d="M8913.6,3742.2c-861.9-1237.3-942.4-1356.1-877.2-1289.1c57.5,57.5,750.8,842.8,888.7,1005.6c291.1,342.9,576.5,785.3,676.2,1043.9c49.8,128.3,95.8,325.6,74.7,325.6C9672.1,4828.2,9329.2,4339.8,8913.6,3742.2z" style="fill:rgb(172,119,85);"/>
    <path d="M9354.1,4782.2c-224.1-82.4-607.2-321.8-934.7-584.2c-109.2-86.2-588-503.8-1063-927C5690,1788.5,4879.8,1106.6,4050.4,482.2c-547.8-411.8-869.6-628.3-1264.2-846.6l-201.1-113L2520-356.7c-97.7,174.3-342.9,408-521,498c-390.7,195.4-814,195.4-1206.7,0C598.9,45.5,351.8-199.7,250.3-395.1c-388.8-745.1,9.6-1654.9,817.9-1867.5c168.6-44.1,475-46,634-5.7c363.9,95.8,668.5,333.3,838.9,657l65.1,120.7l639.7,298.8c760.4,352.4,727.8,339,712.5,300.7c-5.7-15.3-145.6-318-310.3-672.3L3349.4-2207l-134.1-69c-172.4-88.1-454-363.9-540.1-528.6c-113-214.5-149.4-375.4-147.5-632.1c0-195.4,9.6-252.8,51.7-383.1c69-208.8,170.5-375.4,321.8-524.8c149.4-151.3,316-252.8,524.8-321.8c212.6-70.9,542.1-74.7,756.6-9.6c224.1,70.9,373.5,162.8,555.5,346.7c180,180,275.8,344.8,337.1,576.5c44.1,166.6,44.1,484.6,0,651.2c-82.4,304.6-319.9,624.4-574.6,773.8c-69,40.2-126.4,84.3-126.4,95.8c0,42.1,235.6,446.3,436.7,748.9c423.3,635.9,1166.5,1576.4,2082,2635.6c126.4,147.5,563.1,756.6,1302.5,1819.6C9526.5,4881.8,9476.7,4809,9446.1,4807.1C9432.6,4807.1,9390.5,4795.6,9354.1,4782.2z M5303.1,765.7c187.7-47.9,310.3-226,293-427.1c-11.5-141.7-84.3-243.3-218.3-310.3C5065.6-125,4736.1,147,4824.2,484.1c34.5,136,151.3,252.8,287.3,285.4C5195.8,788.7,5211.1,788.7,5303.1,765.7z M1527.9-171c461.6-74.7,783.4-524.8,701-978.8C2127.4-1726.2,1495.3-2027,980-1747.3c-124.5,67-293.1,249-352.4,379.2c-191.5,417.6-21.1,911.7,381.2,1110.9C1208-159.5,1332.5-138.4,1527.9-171z M4125.1-2638c210.7-82.4,400.3-272,480.8-482.7c24.9-63.2,46-168.6,51.7-260.5c21.1-354.3-164.7-664.6-488.4-817.9c-122.6-57.5-141.7-61.3-350.5-61.3c-206.9,0-227.9,3.8-348.6,61.3c-222.2,105.3-381.2,281.6-455.9,505.6c-34.5,101.5-40.2,155.2-34.5,304.6c5.7,155.1,15.3,201.1,67,312.2c105.3,222.2,333.3,417.5,553.5,471.2C3724.8-2574.8,4006.4-2592,4125.1-2638z" style="fill:rgb(172,119,85);"/>
    <path d="M6653.4,62.7c-574.6-691.5-1359.9-1716.2-1359.9-1773.7c0-47.9,124.5,65.1,660.8,601.4l612.9,612.9l95.8-95.8l93.9-95.8l-616.8-618.7c-687.6-687.6-670.4-662.7-549.7-796.8c76.6-84.3,143.7-109.2,206.9-76.6c23,11.5,312.2,289.2,639.7,616.8l599.5,597.6l90-91.9l91.9-90l-618.7-618.7c-699.1-701-676.1-666.5-532.5-810.2c143.7-143.7,109.2-166.6,810.2,532.5l618.7,616.8l95.8-93.9l95.8-95.8L7071-2233.8c-701-701-683.8-676.1-536.3-812.1c147.5-139.8,120.7-157.1,817.9,538.2l612.9,612.9l91.9-90l90-91.9l-612.9-612.9c-570.8-572.7-612.9-618.7-612.9-681.9c0-93.9,116.8-208.8,210.7-208.8c63.2,0,111.1,44.1,680,612.9l612.9,612.9l90-90l91.9-90l-612.9-614.8c-685.7-689.5-672.3-668.5-551.6-806.4c74.7-86.2,132.2-109.2,203-82.4c28.7,11.5,321.8,287.3,651.2,616.8l597.6,597.6l90-91.9l91.9-90l-618.7-618.7c-699.1-701-676.1-666.5-532.5-810.2c145.6-147.5,80.4-197.3,1084.1,806.4l890.7,890.7L8377.3-1216.7L6854.5,304.1L6653.4,62.7z" style="fill:rgb(228,186,159);"/></g></g>
</svg>