<?xml version="1.0" encoding="UTF-8" standalone="no"?><!DOCTYPE svg PUBLIC "-//W3C//DTD SVG 1.1//EN" "http://www.w3.org/Graphics/SVG/1.1/DTD/svg11.dtd"><svg width="100%" height="100%" viewBox="0 0 302 345" version="1.1" xmlns="http://www.w3.org/2000/svg" xmlns:xlink="http://www.w3.org/1999/xlink" xml:space="preserve" xmlns:serif="http://www.serif.com/" style="fill-rule:evenodd;clip-rule:evenodd;stroke-linejoin:round;stroke-miterlimit:2;"><clipPath id="_clip1"><rect x="0" y="-0" width="301.772" height="344.883"/></clipPath><g clip-path="url(#_clip1)"><path d="M300.829,110.133c-1.145,-24.182 -6.668,-45.602 -24.384,-63.251c-17.648,-17.648 -39.069,-23.171 -63.251,-24.384c-24.923,-1.414 -99.625,-1.414 -124.548,0c-24.115,1.145 -45.536,6.669 -63.251,24.317c-17.716,17.648 -23.172,39.069 -24.385,63.251c-1.414,24.923 -1.414,99.625 0,124.548c1.146,24.183 6.669,45.603 24.385,63.251c17.715,17.649 39.068,23.172 63.251,24.385c24.923,1.414 99.625,1.414 124.548,-0c24.182,-1.145 45.603,-6.669 63.251,-24.385c17.648,-17.648 23.172,-39.068 24.384,-63.251c1.415,-24.923 1.415,-99.557 0,-124.481Zm-32.198,151.223c-5.254,13.203 -15.425,23.374 -28.695,28.696c-19.871,7.881 -67.023,6.062 -88.983,6.062c-21.959,-0 -69.178,1.751 -88.982,-6.062c-13.202,-5.254 -23.374,-15.426 -28.695,-28.696c-7.881,-19.871 -6.063,-67.023 -6.063,-88.982c0,-21.959 -1.751,-69.179 6.063,-88.982c5.254,-13.203 15.425,-23.374 28.695,-28.696c19.871,-7.881 67.023,-6.062 88.982,-6.062c21.96,-0 69.179,-1.752 88.983,6.062c13.202,5.254 23.374,15.426 28.695,28.696c7.881,19.871 6.063,67.023 6.063,88.982c-0,21.959 1.818,69.178 -6.063,88.982Z" style="fill:#5e5e41;"/><path d="M150.953,94.977c-42.84,0 -77.396,34.556 -77.396,77.397c-0,42.841 34.556,77.396 77.396,77.396c42.841,0 77.397,-34.555 77.397,-77.396c-0,-42.841 -34.556,-77.397 -77.397,-77.397Zm0,127.715c-27.684,-0 -50.317,-22.566 -50.317,-50.318c-0,-27.752 22.565,-50.318 50.317,-50.318c27.753,0 50.318,22.566 50.318,50.318c0,27.752 -22.633,50.318 -50.318,50.318Z" style="fill:#5e5e41;"/><path d="M249.568,91.812c0,10.036 -8.083,18.052 -18.052,18.052c-10.037,-0 -18.053,-8.083 -18.053,-18.052c0,-9.97 8.084,-18.053 18.053,-18.053c9.969,0 18.052,8.083 18.052,18.053Z" style="fill:#5e5e41;"/></g></svg>