<?xml version="1.0" encoding="UTF-8" standalone="no"?><!DOCTYPE svg PUBLIC "-//W3C//DTD SVG 1.1//EN" "http://www.w3.org/Graphics/SVG/1.1/DTD/svg11.dtd"><svg width="100%" height="100%" viewBox="0 0 8746 3863" version="1.1" xmlns="http://www.w3.org/2000/svg" xmlns:xlink="http://www.w3.org/1999/xlink" xml:space="preserve" xmlns:serif="http://www.serif.com/" style="fill-rule:evenodd;clip-rule:evenodd;stroke-linejoin:round;stroke-miterlimit:2;"><g><path d="M0.001,2219.58l0,-12.163l25.543,-9.731c17.029,-6.487 27.773,-14.393 32.233,-23.718c4.46,-9.326 6.69,-22.097 6.69,-38.315l-0,-634.928c-0,-16.218 -2.433,-29.192 -7.298,-38.923c-4.865,-9.731 -15.407,-17.434 -31.625,-23.111l-25.543,-9.73l0,-12.164l310.166,0l0,12.164l-21.894,9.73c-15.407,5.677 -25.948,13.583 -31.625,23.719c-5.676,10.136 -8.514,23.313 -8.514,39.531l-0,693.312l187.316,0c30.003,0 52.1,-7.298 66.29,-21.894c14.191,-14.596 27.773,-35.679 40.748,-63.249l47.437,-102.173l12.163,0l-10.947,211.643l-591.14,0Z" style="fill:#333;fill-rule:nonzero;"/><path d="M1020.51,2241.47c-49.464,0 -97.104,-8.92 -142.919,-26.759c-45.816,-17.84 -86.766,-44.397 -122.85,-79.67c-36.085,-35.274 -64.669,-79.265 -85.752,-131.973c-21.083,-52.708 -31.625,-114.336 -31.625,-184.883c0,-69.737 10.542,-130.959 31.625,-183.667c21.083,-52.708 49.87,-96.699 86.36,-131.973c36.49,-35.274 77.643,-62.033 123.458,-80.278c45.815,-18.245 93.05,-27.368 141.703,-27.368c49.465,0 97.105,8.717 142.92,26.152c45.815,17.434 86.765,43.788 122.85,79.062c36.085,35.273 64.669,79.467 85.752,132.58c21.083,53.114 31.625,114.944 31.625,185.492c-0,68.926 -10.542,129.945 -31.625,183.059c-21.083,53.113 -49.667,97.307 -85.752,132.58c-36.085,35.274 -77.035,62.034 -122.85,80.279c-45.815,18.245 -93.455,27.367 -142.92,27.367Zm0,-25.543c44.599,0 80.684,-11.96 108.254,-35.882c27.571,-23.921 47.64,-64.871 60.209,-122.85c12.569,-57.979 18.853,-137.649 18.853,-239.01c0,-102.173 -6.284,-182.248 -18.853,-240.227c-12.569,-57.979 -32.638,-98.929 -60.209,-122.85c-27.57,-23.921 -63.655,-35.882 -108.254,-35.882c-43.788,0 -79.467,11.961 -107.037,35.882c-27.571,23.921 -47.64,64.871 -60.209,122.85c-12.569,57.979 -18.853,138.054 -18.853,240.227c-0,101.361 6.284,181.031 18.853,239.01c12.569,57.979 32.638,98.929 60.209,122.85c27.57,23.922 63.249,35.882 107.037,35.882Z" style="fill:#333;fill-rule:nonzero;"/><path d="M1854.91,2241.47c-49.464,0 -97.104,-8.92 -142.92,-26.759c-45.815,-17.84 -86.765,-44.397 -122.85,-79.67c-36.085,-35.274 -64.668,-79.265 -85.752,-131.973c-21.083,-52.708 -31.624,-114.336 -31.624,-184.883c-0,-69.737 10.541,-130.959 31.624,-183.667c21.084,-52.708 49.87,-96.699 86.36,-131.973c36.49,-35.274 77.643,-62.033 123.459,-80.278c45.815,-18.245 93.049,-27.368 141.703,-27.368c49.464,0 97.104,8.717 142.92,26.152c45.815,17.434 86.765,43.788 122.85,79.062c36.084,35.273 64.668,79.467 85.751,132.58c21.084,53.114 31.625,114.944 31.625,185.492c0,68.926 -10.541,129.945 -31.625,183.059c-21.083,53.113 -49.667,97.307 -85.751,132.58c-36.085,35.274 -77.035,62.034 -122.85,80.279c-45.816,18.245 -93.456,27.367 -142.92,27.367Zm-0,-25.543c44.599,0 80.684,-11.96 108.254,-35.882c27.57,-23.921 47.64,-64.871 60.209,-122.85c12.568,-57.979 18.853,-137.649 18.853,-239.01c-0,-102.173 -6.285,-182.248 -18.853,-240.227c-12.569,-57.979 -32.639,-98.929 -60.209,-122.85c-27.57,-23.921 -63.655,-35.882 -108.254,-35.882c-43.788,0 -79.467,11.961 -107.038,35.882c-27.57,23.921 -47.64,64.871 -60.208,122.85c-12.569,57.979 -18.854,138.054 -18.854,240.227c0,101.361 6.285,181.031 18.854,239.01c12.568,57.979 32.638,98.929 60.208,122.85c27.571,23.922 63.25,35.882 107.038,35.882Z" style="fill:#333;fill-rule:nonzero;"/><path d="M2268.47,2219.58l-0,-12.163l25.543,-9.731c16.218,-5.676 26.759,-13.38 31.625,-23.11c4.865,-9.731 7.298,-22.3 7.298,-37.707l-0,-636.144c-0,-16.218 -2.433,-29.192 -7.298,-38.923c-4.866,-9.731 -15.407,-17.434 -31.625,-23.111l-25.543,-9.73l-0,-12.164l302.868,0l-0,12.164l-26.76,10.947c-13.785,4.865 -23.11,12.163 -27.975,21.894c-4.866,9.731 -7.299,23.11 -7.299,40.139l0,636.145c0,16.217 2.636,28.786 7.907,37.706c5.27,8.92 15.609,16.218 31.016,21.894l23.111,9.731l-0,12.163l-302.868,0Zm448.828,0l0,-12.163l15.813,-4.866c16.217,-4.865 24.732,-12.974 25.543,-24.326c0.811,-11.353 -4.055,-24.327 -14.596,-38.923l-233.537,-332.06l307.733,-313.815c11.353,-11.353 17.637,-22.3 18.853,-32.841c1.217,-10.542 -6.689,-18.651 -23.718,-24.327l-20.678,-7.298l0,-12.164l177.585,0l0,12.164l-31.624,9.73c-17.84,5.677 -32.031,12.569 -42.572,20.678c-10.542,8.109 -22.705,19.056 -36.49,32.841l-217.725,222.59l285.84,417.204c12.163,17.839 23.718,32.436 34.665,43.788c10.947,11.352 26.557,20.272 46.829,26.759l17.029,4.866l-0,12.163l-308.95,0Z" style="fill:#333;fill-rule:nonzero;"/><path d="M3325.47,2241.47c-44.599,0 -90.009,-5.473 -136.23,-16.42c-46.221,-10.947 -84.738,-25.341 -115.552,-43.18l6.082,-165.422l12.163,-0l37.707,79.062c11.352,22.705 23.515,42.774 36.49,60.208c12.974,17.435 30.814,31.017 53.519,40.748c16.217,8.109 31.827,13.582 46.829,16.42c15.001,2.838 31.827,4.257 50.478,4.257c49.464,0 88.59,-13.379 117.376,-40.139c28.787,-26.759 43.18,-61.222 43.18,-103.388c0,-39.734 -9.731,-70.751 -29.192,-93.05c-19.461,-22.3 -50.681,-43.991 -93.658,-65.074l-49.87,-21.894c-69.736,-30.814 -124.269,-66.291 -163.597,-106.43c-39.328,-40.139 -58.993,-93.455 -58.993,-159.948c0,-47.843 12.367,-89.198 37.099,-124.067c24.732,-34.868 59.195,-61.627 103.388,-80.278c44.194,-18.65 95.888,-27.976 155.083,-27.976c42.978,0 83.725,5.677 122.242,17.029c38.518,11.353 71.967,26.759 100.348,46.221l-7.298,145.96l-12.163,0l-49.87,-91.225c-13.785,-28.381 -27.57,-48.451 -41.355,-60.209c-13.786,-11.758 -29.598,-20.069 -47.438,-24.935c-10.541,-3.243 -20.272,-5.473 -29.192,-6.689c-8.92,-1.217 -20.272,-1.825 -34.057,-1.825c-41.356,0 -76.224,11.961 -104.605,35.882c-28.381,23.921 -42.572,56.154 -42.572,96.699c-0,41.355 10.947,74.399 32.841,99.131c21.894,24.733 53.924,46.829 96.091,66.291l55.951,24.327c77.846,34.057 133.797,70.344 167.855,108.862c34.057,38.517 51.086,88.184 51.086,149.001c0,71.359 -26.962,129.54 -80.886,174.545c-53.925,45.004 -130.351,67.506 -229.28,67.506Z" style="fill:#333;fill-rule:nonzero;"/><path d="M5023.47,2219.58l0,-12.163l21.894,-8.515c16.218,-6.487 27.368,-14.596 33.449,-24.326c6.082,-9.731 9.123,-22.705 9.123,-38.923l-0,-634.928c-0,-17.029 -3.041,-30.409 -9.123,-40.139c-6.081,-9.731 -17.231,-17.435 -33.449,-23.111l-21.894,-8.514l0,-12.164l349.089,0c98.929,0 170.287,18.043 214.075,54.127c43.789,36.085 65.683,81.698 65.683,136.838c-0,41.356 -16.016,78.86 -48.046,112.512c-32.03,33.652 -86.968,57.37 -164.813,71.155c89.198,9.731 154.474,33.044 195.83,69.94c41.355,36.895 62.033,81.697 62.033,134.405c0,25.949 -5.676,52.1 -17.029,78.454c-11.352,26.354 -30.611,50.478 -57.776,72.372c-27.165,21.894 -64.263,39.531 -111.295,52.911c-47.031,13.379 -106.632,20.069 -178.801,20.069l-308.95,0Zm244.484,-429.367l52.302,0c54.33,0 93.456,-12.569 117.377,-37.706c23.921,-25.138 35.882,-68.926 35.882,-131.365c-0,-64.871 -10.947,-111.092 -32.841,-138.662c-21.894,-27.571 -57.573,-41.356 -107.038,-41.356l-65.682,0l-0,349.089Zm-0,405.04l60.817,0c60.817,0 106.024,-16.217 135.621,-48.653c29.598,-32.436 44.397,-83.116 44.397,-152.042c-0,-64.872 -14.191,-111.092 -42.572,-138.663c-28.381,-27.57 -75.008,-41.355 -139.879,-41.355l-58.384,-0l-0,380.713Z" style="fill:#333;fill-rule:nonzero;"/><path d="M6126.68,2241.47c-49.464,0 -97.104,-8.92 -142.919,-26.759c-45.816,-17.84 -86.766,-44.397 -122.85,-79.67c-36.085,-35.274 -64.669,-79.265 -85.752,-131.973c-21.083,-52.708 -31.625,-114.336 -31.625,-184.883c0,-69.737 10.542,-130.959 31.625,-183.667c21.083,-52.708 49.87,-96.699 86.36,-131.973c36.49,-35.274 77.643,-62.033 123.458,-80.278c45.815,-18.245 93.05,-27.368 141.703,-27.368c49.465,0 97.105,8.717 142.92,26.152c45.815,17.434 86.765,43.788 122.85,79.062c36.085,35.273 64.669,79.467 85.752,132.58c21.083,53.114 31.625,114.944 31.625,185.492c-0,68.926 -10.542,129.945 -31.625,183.059c-21.083,53.113 -49.667,97.307 -85.752,132.58c-36.085,35.274 -77.035,62.034 -122.85,80.279c-45.815,18.245 -93.455,27.367 -142.92,27.367Zm0,-25.543c44.599,0 80.684,-11.96 108.254,-35.882c27.571,-23.921 47.64,-64.871 60.209,-122.85c12.569,-57.979 18.853,-137.649 18.853,-239.01c0,-102.173 -6.284,-182.248 -18.853,-240.227c-12.569,-57.979 -32.638,-98.929 -60.209,-122.85c-27.57,-23.921 -63.655,-35.882 -108.254,-35.882c-43.788,0 -79.467,11.961 -107.037,35.882c-27.571,23.921 -47.64,64.871 -60.209,122.85c-12.569,57.979 -18.853,138.054 -18.853,240.227c-0,101.361 6.284,181.031 18.853,239.01c12.569,57.979 32.638,98.929 60.209,122.85c27.57,23.922 63.249,35.882 107.037,35.882Z" style="fill:#333;fill-rule:nonzero;"/><path d="M6961.09,2241.47c-49.464,0 -97.104,-8.92 -142.92,-26.759c-45.815,-17.84 -86.765,-44.397 -122.85,-79.67c-36.085,-35.274 -64.668,-79.265 -85.752,-131.973c-21.083,-52.708 -31.624,-114.336 -31.624,-184.883c-0,-69.737 10.541,-130.959 31.624,-183.667c21.084,-52.708 49.87,-96.699 86.36,-131.973c36.49,-35.274 77.643,-62.033 123.459,-80.278c45.815,-18.245 93.049,-27.368 141.703,-27.368c49.464,0 97.104,8.717 142.92,26.152c45.815,17.434 86.765,43.788 122.85,79.062c36.084,35.273 64.668,79.467 85.751,132.58c21.084,53.114 31.625,114.944 31.625,185.492c0,68.926 -10.541,129.945 -31.625,183.059c-21.083,53.113 -49.667,97.307 -85.751,132.58c-36.085,35.274 -77.035,62.034 -122.85,80.279c-45.816,18.245 -93.456,27.367 -142.92,27.367Zm-0,-25.543c44.599,0 80.684,-11.96 108.254,-35.882c27.57,-23.921 47.64,-64.871 60.209,-122.85c12.568,-57.979 18.853,-137.649 18.853,-239.01c-0,-102.173 -6.285,-182.248 -18.853,-240.227c-12.569,-57.979 -32.639,-98.929 -60.209,-122.85c-27.57,-23.921 -63.655,-35.882 -108.254,-35.882c-43.788,0 -79.467,11.961 -107.038,35.882c-27.57,23.921 -47.64,64.871 -60.208,122.85c-12.569,57.979 -18.854,138.054 -18.854,240.227c0,101.361 6.285,181.031 18.854,239.01c12.568,57.979 32.638,98.929 60.208,122.85c27.571,23.922 63.25,35.882 107.038,35.882Z" style="fill:#333;fill-rule:nonzero;"/><path d="M7374.64,2219.58l-0,-12.163l25.543,-9.731c16.218,-5.676 26.759,-13.38 31.625,-23.11c4.865,-9.731 7.298,-22.3 7.298,-37.707l-0,-636.144c-0,-16.218 -2.433,-29.192 -7.298,-38.923c-4.866,-9.731 -15.407,-17.434 -31.625,-23.111l-25.543,-9.73l-0,-12.164l302.868,0l-0,12.164l-26.76,10.947c-13.785,4.865 -23.11,12.163 -27.975,21.894c-4.866,9.731 -7.299,23.11 -7.299,40.139l0,636.145c0,16.217 2.636,28.786 7.907,37.706c5.27,8.92 15.609,16.218 31.016,21.894l23.111,9.731l-0,12.163l-302.868,0Zm448.828,0l0,-12.163l15.813,-4.866c16.217,-4.865 24.732,-12.974 25.543,-24.326c0.811,-11.353 -4.055,-24.327 -14.596,-38.923l-233.537,-332.06l307.733,-313.815c11.353,-11.353 17.637,-22.3 18.853,-32.841c1.217,-10.542 -6.689,-18.651 -23.718,-24.327l-20.678,-7.298l0,-12.164l177.585,0l0,12.164l-31.624,9.73c-17.84,5.677 -32.031,12.569 -42.572,20.678c-10.542,8.109 -22.705,19.056 -36.49,32.841l-217.725,222.59l285.84,417.204c12.163,17.839 23.718,32.436 34.665,43.788c10.947,11.352 26.557,20.272 46.829,26.759l17.029,4.866l-0,12.163l-308.95,0Z" style="fill:#333;fill-rule:nonzero;"/><path d="M8431.64,2241.47c-44.599,0 -90.009,-5.473 -136.23,-16.42c-46.221,-10.947 -84.738,-25.341 -115.552,-43.18l6.082,-165.422l12.163,-0l37.707,79.062c11.352,22.705 23.515,42.774 36.49,60.208c12.974,17.435 30.814,31.017 53.519,40.748c16.217,8.109 31.827,13.582 46.829,16.42c15.001,2.838 31.827,4.257 50.478,4.257c49.464,0 88.59,-13.379 117.376,-40.139c28.787,-26.759 43.18,-61.222 43.18,-103.388c0,-39.734 -9.731,-70.751 -29.192,-93.05c-19.461,-22.3 -50.681,-43.991 -93.658,-65.074l-49.87,-21.894c-69.736,-30.814 -124.269,-66.291 -163.597,-106.43c-39.328,-40.139 -58.993,-93.455 -58.993,-159.948c0,-47.843 12.367,-89.198 37.099,-124.067c24.732,-34.868 59.195,-61.627 103.388,-80.278c44.194,-18.65 95.888,-27.976 155.083,-27.976c42.978,0 83.725,5.677 122.242,17.029c38.518,11.353 71.967,26.759 100.348,46.221l-7.298,145.96l-12.163,0l-49.87,-91.225c-13.785,-28.381 -27.57,-48.451 -41.355,-60.209c-13.786,-11.758 -29.598,-20.069 -47.438,-24.935c-10.541,-3.243 -20.272,-5.473 -29.192,-6.689c-8.92,-1.217 -20.272,-1.825 -34.057,-1.825c-41.356,0 -76.224,11.961 -104.605,35.882c-28.381,23.921 -42.572,56.154 -42.572,96.699c-0,41.355 10.947,74.399 32.841,99.131c21.894,24.733 53.924,46.829 96.091,66.291l55.951,24.327c77.846,34.057 133.797,70.344 167.855,108.862c34.057,38.517 51.086,88.184 51.086,149.001c0,71.359 -26.962,129.54 -80.886,174.545c-53.925,45.004 -130.351,67.506 -229.28,67.506Z" style="fill:#333;fill-rule:nonzero;"/></g><g id="Book"><g><path d="M2032.35,336.038l-438.775,116.854c-32.15,8.137 -54.671,37.062 -54.671,70.225c0,-0 1.967,136.316 9.738,290.871c10.208,203.125 29.275,436.308 29.275,436.308c-0,18.446 14.979,33.425 33.425,33.425c18.45,-0 33.425,-14.979 33.425,-33.425c-0,-0 19.066,-233.183 29.279,-436.308c4.675,-93.009 7.246,-179.409 8.554,-233.475l355.675,-85.28l23.242,624.575c0.091,13.113 10.816,23.68 23.929,23.588c13.112,-0.096 23.683,-10.821 23.587,-23.933l34.4,-848.571c231.721,-79.642 450.525,-111.563 655.146,-115.742c163.442,-3.337 317.858,12.038 463.525,42.554c202.008,42.317 386.829,111.738 552.196,196.684c187.337,96.233 350.4,209.125 483.504,321.254c0.004,-0 8.796,204.675 8.796,204.675c-0,14.891 12.092,26.983 26.983,26.983c14.892,0 26.979,-12.092 26.979,-26.983l9.546,-222.196c0,-10.204 -4.271,-19.946 -11.775,-26.863c-130.696,-130.087 -292.837,-266.445 -485.896,-381.691c-170.141,-101.563 -363.479,-187.367 -577.408,-238.584c-156.625,-37.495 -324.529,-56.883 -501.275,-49.391c-229.008,9.7 -472.446,65.329 -728.304,173.083c-22.304,8.733 -37.008,30.213 -37.088,54.167l3.988,107.196Z" style="fill:#333;"/></g><g><path d="M4327.21,3543.74c118.659,3.412 54.134,-54.671 54.134,-70.738l-20.771,-662.579c-0,-14.892 -12.088,-26.984 -26.979,-26.984c-14.892,0 -26.984,12.092 -26.984,26.984l-18.208,580.875c-196.308,-112.029 -387.854,-198.471 -572.971,-263.008c-158.996,-55.426 -313.041,-94.767 -460.375,-121.38c-123.6,-22.325 -242.521,-35.908 -355.725,-41.45c-82.858,-4.054 -162.679,-3.975 -238.946,-0.162c-200.796,10.037 -376.762,42.091 -522.825,78.308c-0.004,0 -28.516,-526.879 -28.516,-526.879c-0.009,-13.113 -10.663,-23.754 -23.775,-23.746c-13.113,0.008 -23.75,10.663 -23.742,23.775l-31.6,597.917c0.008,17.021 7.796,33.1 21.137,43.662c13.342,10.567 30.78,14.455 47.346,10.563c153.059,-30.538 344.775,-51.738 566.1,-52.8c72.538,-0.346 148.217,1.183 226.904,5.316c107.617,5.655 220.763,15.996 338.792,34.146c141.488,21.75 289.858,53.834 444.133,99.846c166.996,49.804 340.876,114.846 519.742,200.796c-202.837,-43.796 -438.537,-75.162 -689.333,-87.046c-182.6,-8.65 -372.996,-7.142 -563.95,6.984c-188.538,13.941 -377.746,39.6 -560.071,79.841c-258.621,57.084 -503.25,143.129 -716.175,256.571l-29.442,-1354.44c0,-13.113 -10.646,-23.763 -23.758,-23.763c-13.113,0 -23.758,10.65 -23.758,23.763l-31.467,1447.55c-0,19.688 10.483,37.884 27.512,47.767c17.03,9.879 38.034,9.946 55.121,0.175c224.204,-124.337 490.204,-208.671 770.017,-268.346c177.312,-37.812 360.204,-65.762 542.875,-83.925c186.296,-18.521 371.992,-27.775 550.733,-28.121c307.863,-0.6 589.721,63.763 824.825,70.53Z" style="fill:#333;"/></g><g><path d="M6631.33,336.038l438.775,116.854c32.15,8.137 54.671,37.062 54.671,70.225c0,-0 -1.966,136.316 -9.737,290.871c-10.209,203.125 -29.275,436.308 -29.275,436.308c-0,18.446 -14.98,33.425 -33.425,33.425c-18.446,-0 -33.425,-14.979 -33.425,-33.425c-0,-0 -19.067,-233.183 -29.279,-436.308c-4.675,-93.009 -7.246,-179.409 -8.555,-233.475l-355.675,-85.28l-23.241,624.575c-0.092,13.113 -10.817,23.68 -23.929,23.588c-13.113,-0.096 -23.684,-10.821 -23.588,-23.933l-34.4,-848.571c-231.721,-79.642 -450.525,-111.563 -655.146,-115.742c-163.441,-3.337 -317.858,12.038 -463.525,42.554c-202.008,42.317 -386.829,111.738 -552.196,196.684c-187.337,96.233 -350.4,209.125 -483.504,321.254c-0.004,-0 -8.796,204.675 -8.796,204.675c0,14.891 -12.091,26.983 -26.983,26.983c-14.888,0 -26.979,-12.092 -26.979,-26.983l-9.546,-222.196c0,-10.204 4.271,-19.946 11.775,-26.863c130.696,-130.087 292.838,-266.445 485.896,-381.691c170.142,-101.563 363.479,-187.367 577.408,-238.584c156.625,-37.495 324.529,-56.883 501.275,-49.391c229.009,9.7 472.446,65.329 728.304,173.083c22.305,8.733 37.009,30.213 37.088,54.167l-3.988,107.196Z" style="fill:#333;"/></g><g><path d="M4339.75,3543.74c-118.658,3.412 -54.133,-54.671 -54.133,-70.738l20.77,-662.579c0,-14.892 12.092,-26.984 26.984,-26.984c14.891,0 26.979,12.092 26.979,26.984l18.208,580.875c196.309,-112.029 387.854,-198.471 572.975,-263.008c158.992,-55.426 313.038,-94.767 460.371,-121.38c123.6,-22.325 242.521,-35.908 355.725,-41.45c82.858,-4.054 162.679,-3.975 238.95,-0.162c200.796,10.037 376.758,42.091 522.825,78.308l28.513,-526.879c0.008,-13.113 10.662,-23.754 23.775,-23.746c13.112,0.008 23.754,10.663 23.745,23.775l31.601,597.917c-0.013,17.021 -7.796,33.1 -21.138,43.662c-13.346,10.567 -30.779,14.455 -47.35,10.563c-153.058,-30.538 -344.771,-51.738 -566.1,-52.8c-72.533,-0.346 -148.217,1.183 -226.904,5.316c-107.617,5.655 -220.763,15.996 -338.792,34.146c-141.487,21.75 -289.858,53.834 -444.133,99.846c-166.996,49.804 -340.875,114.846 -519.738,200.796c202.834,-43.796 438.534,-75.162 689.329,-87.046c182.605,-8.65 372.996,-7.142 563.95,6.984c188.538,13.941 377.746,39.6 560.071,79.841c258.621,57.084 503.25,143.129 716.175,256.571l29.442,-1354.44c0,-13.113 10.646,-23.763 23.758,-23.763c13.113,0 23.759,10.65 23.759,23.763l31.466,1447.55c0,19.688 -10.483,37.884 -27.512,47.767c-17.029,9.879 -38.029,9.946 -55.121,0.175c-224.204,-124.337 -490.204,-208.671 -770.017,-268.346c-177.308,-37.812 -360.204,-65.762 -542.875,-83.925c-186.296,-18.521 -371.991,-27.775 -550.733,-28.121c-307.863,-0.6 -589.717,63.763 -824.825,70.53Z" style="fill:#333;"/></g></g><g id="scissor"><g><path d="M4565.83,2179.96c-77.979,77.975 -78.104,204.338 -0.441,282c77.662,77.667 204.025,77.538 282.004,-0.437c77.975,-77.979 78.104,-204.342 0.441,-282.004c-77.666,-77.663 -204.024,-77.538 -282.004,0.441Zm63.579,63.575c42.817,-42.816 112.201,-43.083 154.846,-0.437c42.642,42.642 42.375,112.029 -0.441,154.846c-42.817,42.816 -112.2,43.083 -154.846,0.437c-42.646,-42.641 -42.375,-112.025 0.442,-154.846Z" style="fill:#333;"/><path d="M4097.84,2179.96c77.979,77.975 78.104,204.338 0.441,282c-77.662,77.667 -204.025,77.538 -282.004,-0.437c-77.975,-77.979 -78.104,-204.342 -0.437,-282.004c77.662,-77.663 204.025,-77.538 282,0.441Zm-63.58,63.575c-42.816,-42.816 -112.2,-43.083 -154.845,-0.437c-42.642,42.642 -42.375,112.029 0.441,154.846c42.817,42.816 112.2,43.083 154.846,0.437c42.646,-42.641 42.375,-112.025 -0.442,-154.846Z" style="fill:#333;"/></g><g><path d="M4642.58,2164.65c0,-0 -97.258,-110.396 -198.679,-220.592c-47.896,-52.042 -96.675,-104.029 -136.683,-144.429c-9.313,-9.404 -16.784,-17.638 -22.054,-25.517c-3.43,-5.125 -6.525,-9.146 -6.38,-13.833c0.43,-13.933 12.367,-26.467 29.276,-45.754c28.883,-32.95 87.333,-104.688 155.104,-189.159c132.733,-165.433 301.521,-379.787 352.541,-443.841c10.225,-12.446 8.425,-30.854 -4.02,-41.079c-12.446,-10.23 -30.855,-8.425 -41.08,4.02c-52.92,62.438 -228.075,271.438 -365.716,432.667c-69.3,81.171 -128.996,150.108 -158.442,181.696c-35.762,38.371 -51.446,69.054 -53.192,97.504c-1.883,30.679 11.9,63.108 50.359,104.388c38.112,40.908 84.491,93.479 130.008,146.066c97.313,112.421 190.483,224.917 190.483,224.917c18.505,21.658 51.113,24.217 72.767,5.712c21.654,-18.504 24.213,-51.108 5.708,-72.766Z" style="fill:#333;"/></g><g><path d="M4122.52,2231.7c-0,-0 93.175,-112.496 190.483,-224.917c45.517,-52.587 91.896,-105.158 130.008,-146.066c38.459,-41.28 52.246,-73.709 50.363,-104.388c-1.75,-28.45 -17.434,-59.133 -53.196,-97.504c-29.442,-31.588 -89.142,-100.525 -158.442,-181.696c-137.641,-161.229 -312.796,-370.229 -365.716,-432.667c-10.225,-12.445 -28.634,-14.25 -41.08,-4.02c-12.445,10.225 -14.245,28.633 -4.016,41.079c51.016,64.054 219.804,278.408 352.537,443.841c67.771,84.471 126.221,156.209 155.104,189.159c16.909,19.287 28.846,31.821 29.275,45.754c0.146,4.687 -2.945,8.708 -6.375,13.833c-5.275,7.879 -12.745,16.113 -22.058,25.517c-40.004,40.4 -88.787,92.387 -136.683,144.429c-101.421,110.196 -198.679,220.592 -198.679,220.592c-18.505,21.658 -15.946,54.262 5.708,72.766c21.658,18.505 54.262,15.946 72.767,-5.712Z" style="fill:#333;"/></g></g></svg>