<?xml version="1.0" encoding="UTF-8" standalone="no"?><!DOCTYPE svg PUBLIC "-//W3C//DTD SVG 1.1//EN" "http://www.w3.org/Graphics/SVG/1.1/DTD/svg11.dtd"><svg width="100%" height="100%" viewBox="0 0 322 323" version="1.1" xmlns="http://www.w3.org/2000/svg" xmlns:xlink="http://www.w3.org/1999/xlink" xml:space="preserve" xmlns:serif="http://www.serif.com/" style="fill-rule:evenodd;clip-rule:evenodd;stroke-linecap:round;stroke-linejoin:round;stroke-miterlimit:1.5;"><path d="M13.063,46.604c5.715,122.767 87.054,254.367 259.65,262.741c21.911,1.063 21.626,-13.052 25.501,-28.592c3.353,-13.444 7.997,-33.51 9.273,-39.412c3.57,-16.513 -1.807,-21.203 -17.773,-28.592c-15.333,-7.096 -48.423,-20.907 -54.094,-23.183c-12.601,-5.056 -19.734,-1.069 -46.366,36.32c-36.31,-17.319 -68.63,-44.291 -92.732,-93.505c-0,0 23.569,-17.645 30.138,-23.956c6.779,-6.513 9.881,-13.78 3.864,-27.819c-6.128,-14.296 -21.255,-49.901 -24.729,-57.185c-3.474,-7.284 -11.662,-12.885 -26.274,-9.273c-14.338,3.544 -48.941,11.199 -54.094,13.137c-4.836,1.819 -13.065,4.262 -12.364,19.319Z" style="fill:none;stroke:#5e5e41;stroke-width:26.04px;"/></svg>