<?xml version="1.0" encoding="UTF-8" standalone="no"?><!DOCTYPE svg PUBLIC "-//W3C//DTD SVG 1.1//EN" "http://www.w3.org/Graphics/SVG/1.1/DTD/svg11.dtd"><svg width="100%" height="100%" viewBox="0 0 186 245" version="1.1" xmlns="http://www.w3.org/2000/svg" xmlns:xlink="http://www.w3.org/1999/xlink" xml:space="preserve" xmlns:serif="http://www.serif.com/" style="fill-rule:evenodd;clip-rule:evenodd;stroke-linejoin:round;stroke-miterlimit:2;"><g id="scissor"><g><path d="M130.701,188.992c-12.611,12.611 -12.631,33.047 -0.071,45.608c12.561,12.56 32.997,12.54 45.608,-0.072c12.611,-12.611 12.632,-33.047 0.071,-45.607c-12.56,-12.561 -32.996,-12.54 -45.608,0.071Zm10.283,10.282c6.925,-6.924 18.146,-6.968 25.043,-0.071c6.897,6.897 6.853,18.118 -0.071,25.043c-6.925,6.925 -18.146,6.968 -25.043,0.071c-6.897,-6.897 -6.854,-18.118 0.071,-25.043Z" style="fill:#333;"/><path d="M55.012,188.992c12.611,12.611 12.631,33.047 0.071,45.608c-12.561,12.56 -32.997,12.54 -45.608,-0.072c-12.611,-12.611 -12.632,-33.047 -0.071,-45.607c12.56,-12.561 32.996,-12.54 45.608,0.071Zm-10.283,10.282c-6.925,-6.924 -18.146,-6.968 -25.043,-0.071c-6.897,6.897 -6.853,18.118 0.071,25.043c6.925,6.925 18.147,6.968 25.043,0.071c6.897,-6.897 6.854,-18.118 -0.071,-25.043Z" style="fill:#333;"/></g><g><path d="M143.112,186.516c-0,-0 -15.73,-17.855 -32.132,-35.676c-7.746,-8.417 -15.636,-16.824 -22.106,-23.358c-1.506,-1.521 -2.715,-2.853 -3.567,-4.127c-0.555,-0.829 -1.055,-1.479 -1.031,-2.238c0.069,-2.253 2,-4.28 4.734,-7.399c4.672,-5.329 14.124,-16.931 25.085,-30.592c21.467,-26.756 48.764,-61.423 57.015,-71.782c1.654,-2.013 1.363,-4.99 -0.65,-6.644c-2.013,-1.654 -4.989,-1.363 -6.643,0.65c-8.559,10.098 -36.886,43.9 -59.147,69.975c-11.207,13.127 -20.862,24.277 -25.624,29.385c-5.784,6.206 -8.321,11.168 -8.603,15.769c-0.305,4.962 1.925,10.207 8.144,16.883c6.164,6.616 13.665,15.118 21.027,23.623c15.737,18.182 30.806,36.375 30.806,36.375c2.993,3.503 8.266,3.917 11.768,0.924c3.503,-2.993 3.916,-8.266 0.924,-11.768Z" style="fill:#333;"/></g><g><path d="M59.003,197.36c-0,0 15.068,-18.193 30.806,-36.375c7.362,-8.505 14.862,-17.007 21.026,-23.623c6.22,-6.676 8.45,-11.921 8.145,-16.883c-0.283,-4.601 -2.819,-9.563 -8.603,-15.769c-4.762,-5.108 -14.417,-16.258 -25.624,-29.385c-22.261,-26.075 -50.588,-59.877 -59.147,-69.975c-1.654,-2.013 -4.631,-2.304 -6.643,-0.65c-2.013,1.654 -2.305,4.631 -0.651,6.644c8.252,10.359 35.549,45.026 57.016,71.782c10.961,13.661 20.413,25.263 25.085,30.592c2.734,3.119 4.665,5.146 4.734,7.399c0.024,0.759 -0.477,1.409 -1.031,2.238c-0.853,1.274 -2.061,2.606 -3.567,4.127c-6.47,6.534 -14.36,14.941 -22.106,23.358c-16.402,17.821 -32.132,35.676 -32.132,35.676c-2.993,3.502 -2.579,8.775 0.924,11.768c3.502,2.993 8.775,2.579 11.768,-0.924Z" style="fill:#333;"/></g></g></svg>