<?xml version="1.0" encoding="UTF-8" standalone="no"?><!DOCTYPE svg PUBLIC "-//W3C//DTD SVG 1.1//EN" "http://www.w3.org/Graphics/SVG/1.1/DTD/svg11.dtd"><svg width="100%" height="100%" viewBox="0 0 310 241" version="1.1" xmlns="http://www.w3.org/2000/svg" xmlns:xlink="http://www.w3.org/1999/xlink" xml:space="preserve" xmlns:serif="http://www.serif.com/" style="fill-rule:evenodd;clip-rule:evenodd;stroke-linecap:round;stroke-linejoin:round;stroke-miterlimit:1.5;"><path id="mail" d="M296.043,38.78c0,-14.217 -11.542,-25.759 -25.759,-25.759l-230.704,-0c-14.658,-0 -26.559,11.901 -26.559,26.559l-0,152.435c-0,19.683 15.979,35.662 35.661,35.662l210.87,0c20.14,0 36.491,-16.351 36.491,-36.492l0,-152.405Z" style="fill:none;"/><clipPath id="_clip1"><path d="M296.043,38.78c0,-14.217 -11.542,-25.759 -25.759,-25.759l-230.704,-0c-14.658,-0 -26.559,11.901 -26.559,26.559l-0,152.435c-0,19.683 15.979,35.662 35.661,35.662l210.87,0c20.14,0 36.491,-16.351 36.491,-36.492l0,-152.405Z"/></clipPath><g clip-path="url(#_clip1)"><path d="M167.415,151.372c-7.63,5.738 -18.136,5.738 -25.766,-0c-23.132,-17.396 -73.333,-55.148 -116.58,-87.67c-10.816,-8.134 -15.218,-22.274 -10.93,-35.111c4.288,-12.836 16.305,-21.492 29.838,-21.492c66.331,0 154.778,0 221.11,0c13.533,0 25.55,8.656 29.838,21.492c4.288,12.837 -0.114,26.977 -10.93,35.111c-43.248,32.522 -93.448,70.274 -116.58,87.67Z" style="fill:none;stroke:#5e5e41;stroke-width:26.04px;"/></g><path d="M296.043,38.78c0,-14.217 -11.542,-25.759 -25.759,-25.759l-230.704,-0c-14.658,-0 -26.559,11.901 -26.559,26.559l-0,152.435c-0,19.683 15.979,35.662 35.661,35.662l210.87,0c20.14,0 36.491,-16.351 36.491,-36.492l0,-152.405Z" style="fill:none;stroke:#5e5e41;stroke-width:26.04px;"/></svg>