<?xml version="1.0" standalone="no"?>
<!DOCTYPE svg PUBLIC "-//W3C//DTD SVG 20010904//EN"
 "http://www.w3.org/TR/2001/REC-SVG-20010904/DTD/svg10.dtd">
<svg version="1.0" xmlns="http://www.w3.org/2000/svg"
 width="808.000000pt" height="808.000000pt" viewBox="0 0 808.000000 808.000000"
 preserveAspectRatio="xMidYMid meet">
<metadata>
Created by potrace 1.14, written by Peter Selinger 2001-2017
</metadata>
<g transform="translate(0.000000,808.000000) scale(0.100000,-0.100000)"
fill="#000000" stroke="none">
<path d="M1624 7936 c-50 -27 -86 -94 -78 -145 7 -41 34 -97 61 -126 10 -11
41 -49 68 -85 28 -36 52 -67 55 -70 3 -3 57 -70 120 -150 63 -80 182 -230 265
-335 83 -104 192 -242 242 -305 50 -63 199 -252 332 -420 133 -168 254 -320
269 -339 15 -19 41 -51 57 -71 17 -20 44 -53 60 -74 45 -58 124 -157 156 -196
16 -19 59 -73 96 -120 37 -47 72 -90 78 -96 5 -6 21 -26 35 -44 23 -30 150
-188 188 -235 10 -11 42 -52 72 -90 54 -68 93 -115 117 -140 12 -12 -16 -48
-152 -195 -173 -188 -284 -339 -324 -440 -65 -167 -44 -341 63 -513 52 -83
112 -155 323 -386 24 -25 43 -48 43 -51 0 -3 -18 -25 -41 -50 -90 -99 -136
-149 -220 -240 -48 -53 -96 -105 -106 -116 -10 -12 -61 -67 -113 -124 -52 -57
-102 -111 -111 -122 -9 -10 -50 -55 -91 -101 -41 -45 -92 -102 -114 -127 -21
-24 -48 -54 -59 -66 -22 -24 -136 -151 -163 -182 -41 -47 -148 -167 -161 -179
-7 -8 -16 -12 -20 -11 -249 126 -436 162 -674 132 -348 -45 -655 -261 -812
-573 -40 -79 -82 -200 -91 -259 -3 -21 -9 -55 -14 -76 -11 -50 -4 -287 10
-346 6 -25 13 -62 17 -83 3 -21 10 -40 14 -43 5 -3 9 -13 9 -23 0 -10 24 -65
53 -123 161 -316 437 -522 782 -582 78 -14 295 -14 360 -1 301 62 538 218 700
460 68 102 140 263 146 327 0 4 4 22 10 40 11 41 21 134 23 218 3 139 -30 293
-94 442 l-41 97 108 128 c59 70 110 130 113 133 3 3 37 43 75 90 39 47 80 96
91 110 12 14 79 93 149 175 69 83 148 175 175 205 26 30 132 153 235 272 103
120 189 218 192 218 6 0 23 -19 154 -174 13 -16 29 -34 34 -40 13 -14 425
-494 482 -562 22 -27 122 -145 221 -263 l180 -214 -34 -53 c-140 -219 -193
-533 -133 -792 6 -26 12 -51 13 -57 1 -5 12 -39 26 -75 132 -353 416 -596 795
-681 122 -27 345 -17 485 20 403 109 722 467 778 874 11 81 7 296 -6 352 -7
28 -14 61 -17 74 -17 91 -106 276 -178 371 -226 295 -588 454 -951 419 -118
-12 -249 -45 -319 -80 l-41 -21 -19 23 c-10 13 -52 60 -92 104 -40 44 -137
152 -215 240 -258 288 -285 318 -300 334 -9 9 -61 65 -115 125 -55 60 -111
122 -125 136 -14 15 -59 65 -101 111 -126 138 -130 143 -162 176 l-30 32 21
23 c12 13 39 41 59 63 100 108 230 261 266 312 170 247 168 476 -7 721 -56 78
-64 87 -189 227 -77 85 -149 166 -180 202 l-19 22 338 423 c186 233 341 425
344 428 3 3 21 25 40 50 19 25 43 54 52 65 9 11 83 103 163 205 81 102 159
201 175 220 25 31 62 78 152 191 84 108 552 698 759 959 252 316 247 309 255
358 22 119 -106 215 -216 163 -29 -14 -79 -67 -248 -266 -10 -11 -100 -119
-202 -240 -101 -121 -194 -231 -206 -245 -12 -14 -63 -74 -114 -135 -51 -60
-112 -132 -135 -160 -24 -27 -168 -198 -321 -380 -153 -181 -370 -438 -483
-570 -113 -132 -241 -283 -285 -335 -45 -52 -93 -108 -107 -125 -27 -30 -132
-154 -203 -237 l-38 -46 -37 42 c-20 22 -38 43 -41 46 -3 3 -27 32 -55 65 -27
33 -54 65 -60 71 -5 6 -30 35 -55 64 -25 30 -130 153 -234 274 -103 122 -209
246 -235 276 -25 30 -62 73 -81 95 -40 46 -102 119 -215 255 -44 52 -82 97
-85 100 -3 3 -28 32 -55 65 -28 33 -60 71 -71 85 -63 73 -327 386 -388 460
-39 47 -73 87 -76 90 -7 7 -112 132 -125 148 -5 7 -17 21 -26 30 -8 9 -62 73
-120 142 -57 69 -106 127 -109 130 -4 3 -51 59 -105 125 -141 170 -158 184
-228 189 -32 3 -56 -3 -83 -18z m2561 -3492 c22 -27 45 -53 51 -59 21 -20 141
-171 174 -220 68 -101 51 -138 -176 -374 l-128 -133 -133 138 c-154 162 -207
232 -207 278 0 43 54 123 212 312 l127 152 20 -22 c11 -13 38 -45 60 -72z
m-2025 -2805 c60 -12 178 -65 224 -101 104 -82 171 -175 210 -294 23 -71 26
-90 27 -169 4 -240 -142 -462 -361 -550 -182 -73 -403 -46 -564 69 -93 65
-205 229 -222 320 -3 16 -8 34 -11 39 -3 6 -7 47 -9 92 -10 287 190 545 461
594 109 20 139 20 245 0z m4038 -5 c178 -40 332 -177 399 -354 29 -76 35 -103
38 -195 9 -229 -128 -448 -345 -552 -53 -26 -148 -46 -225 -48 -193 -5 -364
77 -483 232 -38 49 -89 155 -97 202 -3 19 -8 37 -10 41 -10 17 -7 170 5 225
15 75 59 173 101 228 150 194 377 276 617 221z"/>
</g>
</svg>
