<?xml version="1.0" encoding="UTF-8" standalone="no"?>
<!DOCTYPE svg PUBLIC "-//W3C//DTD SVG 1.1//EN" "http://www.w3.org/Graphics/SVG/1.1/DTD/svg11.dtd">
<svg width="100%" height="100%" viewBox="0 0 620 1043" version="1.1" xmlns="http://www.w3.org/2000/svg" xmlns:xlink="http://www.w3.org/1999/xlink" xml:space="preserve" xmlns:serif="http://www.serif.com/" style="fill-rule:evenodd;clip-rule:evenodd;stroke-linejoin:round;stroke-miterlimit:2;">
    <g transform="matrix(1,0,0,1,-160.759,-106.177)">
        <path d="M316.999,182.004C326.706,167.823 336.245,153.937 346.026,140.224C348.351,136.964 351.156,133.808 354.395,131.538C356.047,130.381 359.874,130.355 361.4,131.529C363.016,132.773 364.239,136.437 363.598,138.368C361.086,145.928 357.904,153.279 354.727,160.601C344.698,183.72 337.003,207.576 332.017,232.278C329.53,244.594 326.394,256.89 325.312,269.349C324.132,282.951 324.751,296.736 325.048,310.431C325.215,318.14 325.923,325.888 327.075,333.515C329.86,351.957 334.749,369.862 342.02,387.077C354.06,415.58 371.15,441.18 388.395,466.617C404.538,490.428 421.778,513.494 437.966,537.276C455.585,563.162 470.504,590.648 483.962,618.911C496.16,644.527 504.635,671.405 509.812,699.246C511.966,710.825 513.008,722.65 513.91,734.413C514.972,748.251 516.283,762.177 515.791,776.005C514.917,800.586 512.759,825.133 506.413,849.05C503.534,859.9 500.165,870.62 497,881.394C496.726,882.327 496.333,883.227 495.967,884.132C494.355,888.118 491.427,891.199 487.169,890.741C483.238,890.318 480.829,887.066 479.906,882.96C478.015,874.547 476.358,866.055 473.909,857.801C469.63,843.377 462.598,830.66 450.085,821.455C439.919,813.976 428.613,813.024 417.311,816.531C397.706,822.614 378.444,829.798 359.023,836.478C342.529,842.151 325.883,846.618 308.119,846.11C290.476,845.606 282.294,837.986 282.021,820.243C281.903,812.58 282.04,804.913 281.992,797.248C281.89,780.71 275.85,766.641 264.343,754.821C258.633,748.956 251.556,743.965 249.807,735.288C248.777,730.177 247.81,724.847 248.164,719.708C248.852,709.699 243.842,702.757 236.633,697.48C228.502,691.528 224.938,677.381 226.421,669.86C227.559,664.086 228.423,657.979 227.782,652.2C226.817,643.499 219.86,639.687 212.334,636.976C203.143,633.665 193.744,630.805 184.858,626.81C176.416,623.015 168.66,617.664 164.12,609.203C158.014,597.826 160.419,582.843 169.785,573.796C182.286,561.72 193.65,548.725 203.242,534.224C218.657,510.921 229.064,485.404 234.806,458.198C238.479,440.793 240.58,423.037 242.894,405.373C243.9,397.694 243.926,389.854 243.949,382.086C244.001,364.41 246.99,347.125 250.571,329.927C257.721,295.589 270.875,263.422 287.283,232.626C296.421,215.476 306.994,199.092 316.999,182.004Z" style="fill:rgb(181,116,78);fill-rule:nonzero;"/>
    </g>
    <g transform="matrix(1,0,0,1,-160.759,-106.177)">
        <path d="M371.734,236.872C371.776,236.454 371.817,236.035 372.155,235.075C372.534,233.31 372.617,232.085 372.7,230.861C372.77,230.145 372.841,229.428 373.19,228.144C373.554,226.673 373.639,225.77 373.724,224.867C373.768,224.449 373.811,224.031 374.159,223.058C377.175,210.901 379.321,199.131 382.719,187.734C389.401,165.322 396.754,143.109 403.905,120.838C404.661,118.483 405.746,116.185 406.993,114.044C409.393,109.923 413.345,109.817 416.172,113.68C416.93,114.716 417.526,115.871 418.197,116.971C418.21,117.39 418.223,117.809 418.187,118.884C418.45,120.358 418.763,121.175 419.075,121.992C419.146,124.321 419.216,126.649 419.237,129.743C419.481,131.336 419.775,132.165 420.069,132.993C420.12,134.996 420.172,136.999 420.184,139.768C420.442,141.355 420.742,142.175 421.041,142.996C421.116,144.995 421.192,146.994 421.224,149.756C421.489,151.342 421.797,152.166 422.104,152.989C422.147,154.341 422.19,155.692 422.191,157.791C422.465,159.355 422.78,160.173 423.094,160.99C423.115,161.714 423.135,162.438 423.123,163.953C423.088,165.41 422.958,166.104 423.101,166.737C426.6,182.239 429.465,197.924 433.826,213.182C438.739,230.372 446.72,246.497 458.697,259.819C474.702,277.625 492.741,293.382 512.411,307.159C531.695,320.665 552.203,332.051 574.224,340.278C585.465,344.478 597.48,346.609 609.145,349.675C610.173,349.766 611.201,349.857 612.798,350.208C613.967,350.519 614.566,350.569 615.165,350.619C626.297,351.06 637.441,351.303 648.554,352.035C653.141,352.337 657.797,353.252 662.18,354.648C673.676,358.309 679.572,368.014 676.983,379.788C675.426,386.865 672.895,393.801 670.117,400.516C667.323,407.272 663.302,413.519 660.482,420.266C653.309,437.423 656.399,447.74 669.943,457.911C676.83,463.082 683.11,468.71 684.421,477.854C684.767,480.266 684.736,482.805 684.425,485.227C683.173,494.963 684.567,503.793 692.269,510.769C702.282,519.838 706.614,531.198 706.12,544.641C705.554,560.054 708.856,574.389 718.882,586.608C720.985,589.173 723.268,591.595 725.532,594.022C730.522,599.37 735.84,604.441 740.497,610.063C746.971,617.88 746.428,626.801 740.02,634.58C725.34,652.401 705.55,662.518 684.765,670.839C666.101,678.31 647.059,684.836 628.209,691.846C613.7,697.24 602.032,706.882 593.274,719.118C583.254,733.116 574.994,748.374 565.991,763.098C564.345,765.79 563.146,768.851 561.095,771.17C559.593,772.868 556.613,774.969 555.049,774.478C553.01,773.838 551.076,771.04 550.268,768.756C549.243,765.859 549.041,762.54 549.094,759.414C549.543,733.069 547.096,706.846 542.549,681.055C537.218,650.814 528.652,621.363 515.397,593.297C503.148,567.362 489.636,542.283 473.158,518.825C455.692,493.962 437.787,469.4 420.686,444.29C403.133,418.516 388.366,391.149 377.91,361.679C372.127,345.378 367.5,328.672 366.987,311.234C366.591,297.801 366.931,284.346 367.219,270.205C367.537,268.286 367.579,267.064 367.621,265.843C367.712,264.495 367.803,263.147 368.181,261.151C368.572,258.964 368.676,257.427 368.78,255.889C368.813,255.467 368.845,255.044 369.178,254.055C369.896,250.283 370.313,247.078 370.73,243.873C370.792,243.153 370.854,242.434 371.198,241.12C371.565,239.308 371.65,238.09 371.734,236.872Z" style="fill:rgb(227,186,159);fill-rule:nonzero;"/>
    </g>
    <g transform="matrix(1,0,0,1,-160.759,-106.177)">
        <path d="M492.637,996.592C495.6,977.612 511.067,965.425 529.835,966.898C546.747,968.225 560.644,983.719 560.48,1001.06C560.309,1019.07 546.057,1033.98 527.758,1034.79C508.207,1035.65 490.309,1020.09 492.637,996.592M509.861,976.227C508.705,977.179 507.493,978.07 506.402,979.091C496.274,988.572 494.143,1003.94 501.239,1016.13C507.669,1027.18 521.832,1032.93 533.998,1029.28C546.133,1025.62 553.517,1017.44 555.382,1004.94C557.162,993.002 552.628,983.201 542.817,976.429C532.402,969.24 521.399,969.177 509.861,976.227Z" style="fill:rgb(12,12,12);fill-rule:nonzero;"/>
    </g>
    <g transform="matrix(1,0,0,1,-160.759,-106.177)">
        <path d="M684.715,1142.81C673.554,1147.91 662.145,1145.38 650.748,1146.05L650.748,1079.65C661.139,1079.87 671.624,1078.04 681.72,1081.86C694.369,1086.63 700.981,1096.27 702.306,1109.43C703.784,1124.11 698.1,1135.37 684.715,1142.81M697.672,1117.87C699.671,1093.25 683.603,1080.49 655.434,1084.49L655.434,1141.56C660.129,1141.56 664.583,1141.58 669.038,1141.56C683.902,1141.48 694.231,1133.17 697.672,1117.87Z" style="fill:rgb(5,5,5);fill-rule:nonzero;"/>
    </g>
    <g transform="matrix(1,0,0,1,-160.759,-106.177)">
        <path d="M438.378,1091.65C446.804,1103.74 448.265,1116.39 441.69,1129.15C435.442,1141.27 424.58,1146.27 411.126,1146.03C405.47,1145.92 399.811,1146.01 393.848,1146.01L393.848,1078.7C404.028,1079.66 414.231,1079.68 423.927,1081.91C429.117,1083.1 433.434,1088.1 438.378,1091.65M439.144,1102.53C435.904,1093.08 429.235,1087.04 419.651,1085.17C412.781,1083.83 405.598,1084.08 398.5,1083.62L398.5,1141.11C429.117,1145.01 446.284,1129.01 439.144,1102.53Z" style="fill:rgb(5,5,5);fill-rule:nonzero;"/>
    </g>
    <g transform="matrix(1,0,0,1,-160.759,-106.177)">
        <path d="M289.158,1030.71C289.158,1021.28 289.158,1012.32 289.158,1003.11L249.328,1003.11L249.328,1033.78L244.667,1033.78L244.667,967.874L249.232,967.874L249.232,998.197L288.852,998.197L288.852,967.885C290.704,967.747 292.094,967.644 293.763,967.52L293.763,1033.82C291.643,1033.83 288.911,1035.37 289.158,1030.71Z" style="fill:rgb(9,9,9);fill-rule:nonzero;"/>
    </g>
    <g transform="matrix(1,0,0,1,-160.759,-106.177)">
        <path d="M276,1110.53C284.822,1110.53 293.142,1110.53 301.941,1110.53L301.941,1079.82C303.787,1079.73 305.175,1079.66 306.799,1079.58L306.799,1145.76L302.129,1145.76L302.129,1115.07L262.228,1115.07L262.228,1145.83L257.803,1145.83L257.803,1079.96C258.869,1079.82 260.222,1079.63 262.142,1079.37L262.142,1110.53L276,1110.53Z" style="fill:rgb(9,9,9);fill-rule:nonzero;"/>
    </g>
    <g transform="matrix(1,0,0,1,-160.759,-106.177)">
        <path d="M722.273,967.564C723.153,968.782 723.6,969.967 724.296,971.811L687.418,971.811L687.418,997.927L719.6,997.927C719.778,999.604 719.923,1000.96 720.122,1002.84L687.343,1002.84L687.343,1029.3L724.799,1029.3L724.799,1033.83L682.77,1033.83L682.77,967.531C695.955,967.531 708.898,967.531 722.273,967.564Z" style="fill:rgb(10,10,10);fill-rule:nonzero;"/>
    </g>
    <g transform="matrix(1,0,0,1,-160.759,-106.177)">
        <path d="M386.201,1028.7L386.201,1033.82L381.822,1033.82L381.822,967.876C388.367,967.876 394.849,967.386 401.226,967.996C409.902,968.826 415.881,974.633 417.465,982.574C419.164,991.094 415.736,998.935 408.315,1003.5C407.771,1003.84 407.234,1004.19 406.424,1004.7C412.255,1014.29 418.024,1023.78 423.848,1033.37C420.327,1034.97 418.464,1033.62 416.737,1030.64C412.578,1023.44 407.96,1016.51 403.812,1009.31C402.269,1006.63 400.52,1005.69 397.491,1005.94C393.865,1006.25 390.193,1006.01 386.201,1006.01C386.201,1013.63 386.201,1020.94 386.201,1028.7M386.184,972.288L386.184,1002.11C391.75,1001.76 396.593,1001.85 401.29,1001.07C408.835,999.811 412.966,994.394 412.998,986.663C413.028,979.508 408.715,973.544 401.596,972.436C396.663,971.668 391.513,972.288 386.184,972.288Z" style="fill:rgb(7,7,7);fill-rule:nonzero;"/>
    </g>
    <g transform="matrix(1,0,0,1,-160.759,-106.177)">
        <path d="M591.534,1106C591.551,1097.34 591.564,1089.17 591.597,1081.01C591.599,1080.71 591.801,1080.41 591.951,1079.99C598.679,1079.99 605.508,1079.39 612.184,1080.14C620.473,1081.08 626.194,1087.22 627.583,1095.02C629.027,1103.15 625.636,1110.92 618.772,1115.22C618.081,1115.65 617.39,1116.08 616.42,1116.69C622.232,1126.25 628,1135.74 633.882,1145.42C630.41,1146.86 628.506,1145.71 626.766,1142.69C622.625,1135.49 617.99,1128.57 613.851,1121.37C612.315,1118.69 610.592,1117.7 607.562,1117.94C603.933,1118.24 600.263,1118.01 596.298,1118.01L596.298,1145.81L591.534,1145.81L591.534,1106M620.771,1107.04C625.789,1096.45 621.769,1086.21 611.369,1084.38C606.588,1083.54 601.535,1084.24 596.514,1084.24L596.514,1113.82C599.973,1113.82 603.117,1113.94 606.249,1113.79C611.686,1113.53 616.862,1112.52 620.771,1107.04Z" style="fill:rgb(7,7,7);fill-rule:nonzero;"/>
    </g>
    <g transform="matrix(1,0,0,1,-160.759,-106.177)">
        <path d="M358.249,1140.7C365.613,1136.97 368.497,1131.01 368.504,1123.41C368.516,1109.09 368.507,1094.77 368.507,1079.93C369.896,1079.79 371.233,1079.65 372.635,1079.51C372.82,1080.37 373.008,1080.84 373.009,1081.31C373.026,1095.63 373.071,1109.96 373.014,1124.29C372.961,1137.43 364.005,1146.47 350.777,1146.85C337.622,1147.24 327.626,1138.61 327.253,1125.59C326.818,1110.47 327.151,1095.32 327.151,1079.85L331.858,1079.85C331.858,1094.55 331.765,1109.01 331.891,1123.47C331.973,1132.88 336.669,1139.94 344.653,1141.45C348.878,1142.25 353.467,1141.13 358.249,1140.7Z" style="fill:rgb(14,14,14);fill-rule:nonzero;"/>
    </g>
    <g transform="matrix(1,0,0,1,-160.759,-106.177)">
        <path d="M555.392,1096.51C562.085,1113 568.604,1129.15 575.314,1145.77C573.485,1145.87 571.955,1145.96 570.281,1146.06C567.337,1138.66 564.471,1131.45 561.516,1124.02C552.478,1124.02 543.501,1123.92 534.531,1124.14C533.369,1124.17 531.718,1125.59 531.197,1126.77C528.915,1131.92 526.98,1137.23 524.891,1142.46C523.442,1146.1 523.421,1146.09 518.932,1145.56C528.152,1122.8 537.35,1100.09 547.068,1076.1C550.09,1083.54 552.653,1089.86 555.392,1096.51M534.586,1119.67L559.842,1119.67C555.533,1108.71 551.511,1098.48 546.989,1086.97C542.46,1098.42 538.413,1108.66 534.586,1119.67Z" style="fill:rgb(11,11,11);fill-rule:nonzero;"/>
    </g>
    <g transform="matrix(1,0,0,1,-160.759,-106.177)">
        <path d="M333.047,1012.02C323.261,1012.02 323.263,1012.02 319.777,1020.75C318.421,1024.14 316.891,1027.48 315.747,1030.94C314.734,1034.01 312.975,1034.76 309.961,1033.52C318.993,1011.19 328.021,988.873 337.066,966.561C337.236,966.14 337.602,965.8 338.366,964.749C343.124,976.513 347.676,987.789 352.246,999.059C356.863,1010.45 361.499,1021.83 366.21,1033.41C362.649,1034.9 360.922,1033.86 359.707,1030.31C357.617,1024.2 355.006,1018.28 352.512,1012.02L333.047,1012.02M332.405,988.91C329.988,995.045 327.571,1001.18 325.06,1007.55L350.803,1007.55C346.55,996.765 342.487,986.454 337.994,975.053C335.921,980.282 334.346,984.256 332.405,988.91Z" style="fill:rgb(11,11,11);fill-rule:nonzero;"/>
    </g>
    <g transform="matrix(1,0,0,1,-160.759,-106.177)">
        <path d="M773.642,1002.33C779.899,1007.74 781.205,1014.3 779.099,1021.58C776.994,1028.87 771.682,1032.75 764.437,1034.23C754.836,1036.19 746.446,1033.17 738.126,1027.9C738.915,1026.66 739.571,1025.64 740.304,1024.49C741.115,1024.87 741.714,1025.1 742.263,1025.41C748.891,1029.22 755.712,1032.04 763.611,1030.03C769.959,1028.42 774.305,1023.99 775.012,1018.28C775.841,1011.59 773.497,1007 766.941,1003.74C761.741,1001.16 756.221,999.232 750.971,996.743C743.452,993.18 740.321,987.929 741.223,981.036C742.073,974.542 747.04,969.571 754.441,967.786C762.48,965.846 769.88,967.98 777.224,971.133C776.996,974.512 775.667,974.484 772.748,973.882C767.008,972.697 761.049,971.757 755.235,972.002C750.49,972.202 747.054,975.679 746.127,980.648C745.137,985.957 747.645,989.724 752.264,992.021C759.243,995.491 766.326,998.749 773.642,1002.33Z" style="fill:rgb(13,13,13);fill-rule:nonzero;"/>
    </g>
    <g transform="matrix(1,0,0,1,-160.759,-106.177)">
        <path d="M176.246,1009.59C174.096,996.869 176.22,985.639 185.195,976.415C195.781,965.535 212.528,963.66 226.872,971.801C226.379,973.013 225.866,974.276 225.356,975.534C206.92,968.475 194.759,970.867 185.907,983.098C177.967,994.069 178.355,1010.03 186.751,1020.27C193.985,1029.09 208.51,1034.55 225.184,1025.88C225.835,1026.91 226.503,1027.96 227.334,1029.27C222.292,1033.12 216.552,1034.45 210.61,1034.81C194.437,1035.79 181.652,1026.44 176.246,1009.59Z" style="fill:rgb(13,13,13);fill-rule:nonzero;"/>
    </g>
    <g transform="matrix(1,0,0,1,-160.759,-106.177)">
        <path d="M475.861,1129.31C469.103,1112.68 462.465,1096.43 455.786,1080.08C459.407,1078.8 461.134,1079.6 462.461,1083.09C468.842,1099.85 475.538,1116.49 482.14,1133.17C482.669,1134.51 483.326,1135.79 484.289,1137.9C491.519,1119.21 498.503,1101.37 505.285,1083.44C506.485,1080.27 507.949,1078.61 512.023,1080C502.77,1102.75 493.525,1125.48 483.897,1149.15C480.947,1141.89 478.465,1135.78 475.861,1129.31Z" style="fill:rgb(14,14,14);fill-rule:nonzero;"/>
    </g>
    <g transform="matrix(1,0,0,1,-160.759,-106.177)">
        <path d="M609.012,349.351C597.48,346.609 585.465,344.478 574.224,340.278C552.203,332.051 531.695,320.665 512.411,307.159C492.741,293.382 474.702,277.625 458.697,259.819C446.72,246.497 438.739,230.372 433.826,213.182C429.465,197.924 426.6,182.239 423.101,166.737C422.958,166.104 423.088,165.41 423.166,164.313C424.48,168.335 426.179,172.717 426.876,177.253C430.386,200.092 437.314,221.785 448.998,241.725C457.438,256.129 468.943,268.021 481.871,278.568C492.261,287.044 502.07,296.293 512.882,304.176C530.56,317.065 549.434,328.156 569.931,336.004C582.704,340.894 595.883,344.722 609.012,349.351Z" style="fill:rgb(244,227,215);fill-rule:nonzero;"/>
    </g>
    <g transform="matrix(1,0,0,1,-160.759,-106.177)">
        <path d="M588.679,972.853C583.292,972.176 578.003,972.01 572.714,971.837C569.296,971.725 569.296,971.72 569.649,967.719L612.407,967.719C613.34,970.46 613.014,971.975 609.728,971.879C604.427,971.724 599.118,971.837 593.458,971.837L593.458,1033.67C591.793,1033.8 590.45,1033.9 588.776,1034.02C588.776,1013.55 588.776,993.455 588.679,972.853Z" style="fill:rgb(8,8,8);fill-rule:nonzero;"/>
    </g>
    <g transform="matrix(1,0,0,1,-160.759,-106.177)">
        <path d="M647.203,971.837L647.203,1033.74C645.841,1033.84 644.597,1033.93 642.875,1034.05L642.875,971.827L623.718,971.827C622.615,968.82 623.015,967.463 626.26,967.489C639.553,967.595 652.847,967.533 666.116,967.533C667.554,970.608 666.899,971.949 663.531,971.87C658.233,971.745 652.931,971.837 647.203,971.837Z" style="fill:rgb(8,8,8);fill-rule:nonzero;"/>
    </g>
    <g transform="matrix(1,0,0,1,-160.759,-106.177)">
        <path d="M445.183,968.038L445.183,1029.38L481.525,1029.38C481.637,1031.08 481.717,1032.31 481.813,1033.78L440.934,1033.78C440.814,1032.76 440.575,1031.67 440.574,1030.59C440.552,1010.95 440.598,991.314 440.515,971.679C440.503,968.701 440.762,966.579 445.183,968.038Z" style="fill:rgb(1,1,1);fill-rule:nonzero;"/>
    </g>
    <g transform="matrix(1,0,0,1,-160.759,-106.177)">
        <path d="M418.432,116.712C417.526,115.871 416.93,114.716 416.172,113.68C413.345,109.817 409.393,109.923 406.993,114.044C405.746,116.185 404.661,118.483 403.905,120.838C396.754,143.109 389.401,165.322 382.719,187.734C379.321,199.131 377.175,210.901 374.158,222.743C373.76,221.596 373.305,220.116 373.63,218.834C379.186,196.919 384.391,174.9 390.635,153.18C394.557,139.537 400.129,126.372 404.833,112.948C406.213,109.008 408.172,105.872 412.801,106.201C416.217,106.444 418.623,110.996 418.432,116.712Z" style="fill:rgb(244,227,215);fill-rule:nonzero;"/>
    </g>
    <g transform="matrix(1,0,0,1,-160.759,-106.177)">
        <path d="M552.452,1061.52C555.017,1065.26 555.427,1069.24 551.849,1071.4C549.563,1072.79 545.436,1072.74 542.874,1071.63C539.75,1070.28 539.387,1066.64 540.832,1063.38C542.675,1059.2 547.175,1058.4 552.452,1061.52M543.015,1065.71C544.09,1067.37 544.84,1069.59 546.364,1070.47C547.258,1070.98 549.911,1069.75 550.795,1068.57C551.537,1067.58 551.376,1065.26 550.713,1064C549.154,1061.04 546.291,1061.51 543.015,1065.71Z" style="fill:rgb(20,20,20);fill-rule:nonzero;"/>
    </g>
    <g transform="matrix(1,0,0,1,-160.759,-106.177)">
        <path d="M370.394,244.005C370.313,247.078 369.896,250.283 369.177,253.737C369.269,250.703 369.664,247.42 370.394,244.005Z" style="fill:rgb(244,227,215);fill-rule:nonzero;"/>
    </g>
    <g transform="matrix(1,0,0,1,-160.759,-106.177)">
        <path d="M368.456,255.998C368.676,257.427 368.572,258.964 368.171,260.744C367.96,259.36 368.046,257.734 368.456,255.998Z" style="fill:rgb(244,227,215);fill-rule:nonzero;"/>
    </g>
    <g transform="matrix(1,0,0,1,-160.759,-106.177)">
        <path d="M371.429,236.98C371.65,238.09 371.565,239.308 371.195,240.758C370.98,239.69 371.052,238.389 371.429,236.98Z" style="fill:rgb(244,227,215);fill-rule:nonzero;"/>
    </g>
    <g transform="matrix(1,0,0,1,-160.759,-106.177)">
        <path d="M372.399,230.972C372.617,232.085 372.534,233.31 372.155,234.759C371.938,233.684 372.018,232.384 372.399,230.972Z" style="fill:rgb(244,227,215);fill-rule:nonzero;"/>
    </g>
    <g transform="matrix(1,0,0,1,-160.759,-106.177)">
        <path d="M367.331,265.968C367.579,267.064 367.537,268.286 367.216,269.751C366.972,268.694 367.007,267.394 367.331,265.968Z" style="fill:rgb(244,227,215);fill-rule:nonzero;"/>
    </g>
    <g transform="matrix(1,0,0,1,-160.759,-106.177)">
        <path d="M373.435,224.96C373.639,225.77 373.554,226.673 373.188,227.783C372.987,227.012 373.066,226.032 373.435,224.96Z" style="fill:rgb(244,227,215);fill-rule:nonzero;"/>
    </g>
    <g transform="matrix(1,0,0,1,-160.759,-106.177)">
        <path d="M423.325,160.792C422.78,160.173 422.465,159.355 422.25,158.192C422.753,158.761 423.154,159.677 423.325,160.792Z" style="fill:rgb(244,227,215);fill-rule:nonzero;"/>
    </g>
    <g transform="matrix(1,0,0,1,-160.759,-106.177)">
        <path d="M422.331,152.79C421.797,152.166 421.489,151.342 421.301,150.175C421.8,150.751 422.179,151.671 422.331,152.79Z" style="fill:rgb(244,227,215);fill-rule:nonzero;"/>
    </g>
    <g transform="matrix(1,0,0,1,-160.759,-106.177)">
        <path d="M421.278,142.801C420.742,142.175 420.442,141.355 420.245,140.191C420.736,140.767 421.125,141.686 421.278,142.801Z" style="fill:rgb(244,227,215);fill-rule:nonzero;"/>
    </g>
    <g transform="matrix(1,0,0,1,-160.759,-106.177)">
        <path d="M420.299,132.798C419.775,132.165 419.481,131.336 419.316,130.168C419.806,130.753 420.168,131.678 420.299,132.798Z" style="fill:rgb(244,227,215);fill-rule:nonzero;"/>
    </g>
    <g transform="matrix(1,0,0,1,-160.759,-106.177)">
        <path d="M419.307,121.794C418.763,121.175 418.45,120.358 418.237,119.195C418.737,119.765 419.138,120.68 419.307,121.794Z" style="fill:rgb(244,227,215);fill-rule:nonzero;"/>
    </g>
    <g transform="matrix(1,0,0,1,-160.759,-106.177)">
        <path d="M615.077,350.371C614.566,350.569 613.967,350.519 613.186,350.211C613.666,350.01 614.327,350.067 615.077,350.371Z" style="fill:rgb(244,227,215);fill-rule:nonzero;"/>
    </g>
</svg>
