<svg version="1.1" id="Layer_1" xmlns="http://www.w3.org/2000/svg" xmlns:xlink="http://www.w3.org/1999/xlink" x="0px" y="0px"
	 width="100%" viewBox="0 0 952 1256" enable-background="new 0 0 952 1256" xml:space="preserve">

<path fill="#B5744E" opacity="1.000000" stroke="none" 
	d="
M316.999146,182.004089 
	C326.706116,167.823029 336.244568,153.936630 346.026306,140.223770 
	C348.351471,136.964111 351.156311,133.807785 354.395172,131.538162 
	C356.047058,130.380615 359.873657,130.354584 361.399994,131.529037 
	C363.016205,132.772629 364.239044,136.437347 363.597534,138.368073 
	C361.085815,145.927841 357.904175,153.278687 354.727417,160.601303 
	C344.697845,183.720139 337.003326,207.576401 332.016541,232.277618 
	C329.530090,244.593811 326.393768,256.890350 325.312439,269.348602 
	C324.131775,282.951233 324.750702,296.735779 325.048035,310.431000 
	C325.215424,318.140045 325.923126,325.888184 327.074921,333.514893 
	C329.860077,351.957214 334.748810,369.862396 342.019897,387.076630 
	C354.059570,415.580261 371.150360,441.179626 388.395264,466.617188 
	C404.537598,490.428497 421.778107,513.494385 437.965607,537.276184 
	C455.585114,563.161743 470.504242,590.648132 483.962311,618.911316 
	C496.159729,644.527222 504.635101,671.405396 509.812317,699.246155 
	C511.965576,710.825317 513.007568,722.650024 513.910278,734.412598 
	C514.972290,748.251221 516.283264,762.177307 515.791382,776.005188 
	C514.917175,800.585693 512.758545,825.133423 506.412964,849.049927 
	C503.534149,859.899963 500.165100,870.619934 497.000366,881.393677 
	C496.726135,882.327087 496.332520,883.227173 495.966827,884.131592 
	C494.355133,888.117676 491.427002,891.199158 487.169373,890.741211 
	C483.238373,890.318298 480.829132,887.065552 479.906189,882.959839 
	C478.015045,874.547302 476.357666,866.054626 473.909058,857.801147 
	C469.629791,843.377075 462.597931,830.659912 450.085083,821.454834 
	C439.919006,813.976318 428.613464,813.023621 417.310547,816.530945 
	C397.706024,822.614136 378.443756,829.797729 359.023438,836.477600 
	C342.528534,842.151245 325.882996,846.617615 308.119263,846.110107 
	C290.475983,845.606140 282.294037,837.986267 282.020905,820.242737 
	C281.902924,812.579590 282.039948,804.912903 281.992432,797.248230 
	C281.889862,780.709717 275.850281,766.640747 264.343323,754.821106 
	C258.632843,748.955505 251.556335,743.965454 249.806931,735.287537 
	C248.776703,730.177063 247.810318,724.847046 248.163574,719.708374 
	C248.851639,709.699219 243.842255,702.757080 236.632523,697.479553 
	C228.501556,691.527649 224.938156,677.381470 226.420914,669.859741 
	C227.559067,664.086365 228.423050,657.978821 227.782303,652.200256 
	C226.817474,643.498840 219.860062,639.687317 212.333984,636.976013 
	C203.142853,633.664917 193.744125,630.804688 184.857544,626.809875 
	C176.415817,623.015015 168.660446,617.663818 164.119644,609.202820 
	C158.013840,597.825867 160.418747,582.842712 169.784714,573.795715 
	C182.286072,561.719910 193.650009,548.725159 203.242493,534.223816 
	C218.656937,510.921143 229.063889,485.403564 234.805527,458.198090 
	C238.478806,440.792969 240.580261,423.036560 242.894226,405.373199 
	C243.900192,397.694214 243.925934,389.854004 243.948822,382.085693 
	C244.000870,364.410370 246.989578,347.125427 250.570892,329.926941 
	C257.721252,295.588837 270.874725,263.421997 287.283417,232.625916 
	C296.420990,215.476425 306.993744,199.091660 316.999146,182.004089 
z"/>
<path fill="#E3BA9F" opacity="1.000000" stroke="none" 
	d="
M371.734131,236.872177 
	C371.775543,236.453506 371.816956,236.034851 372.155060,235.074951 
	C372.534424,233.309509 372.617096,232.085297 372.699768,230.861069 
	C372.770325,230.144714 372.840851,229.428375 373.190247,228.143936 
	C373.554199,226.672745 373.639252,225.769653 373.724274,224.866547 
	C373.767883,224.449005 373.811493,224.031448 374.159241,223.058228 
	C377.175323,210.900986 379.321228,199.130692 382.719116,187.733658 
	C389.401031,165.321640 396.753662,143.109024 403.904938,120.838371 
	C404.661346,118.482750 405.745697,116.185394 406.992798,114.044441 
	C409.393402,109.923386 413.345215,109.817039 416.171539,113.680046 
	C416.929718,114.716339 417.526062,115.871056 418.196655,116.971420 
	C418.209961,117.390305 418.223236,117.809189 418.187134,118.884460 
	C418.450256,120.358063 418.762756,121.175278 419.075256,121.992477 
	C419.145782,124.320900 419.216278,126.649315 419.237244,129.742523 
	C419.481415,131.336014 419.775116,132.164719 420.068787,132.993423 
	C420.120422,134.996048 420.172028,136.998672 420.183502,139.767685 
	C420.442474,141.354767 420.741608,142.175476 421.040741,142.996170 
	C421.116150,144.995163 421.191559,146.994156 421.223816,149.755783 
	C421.488617,151.341980 421.796539,152.165527 422.104462,152.989090 
	C422.147095,154.340652 422.189697,155.692215 422.191193,157.790924 
	C422.464844,159.355484 422.779602,160.172913 423.094391,160.990326 
	C423.114624,161.714249 423.134857,162.438171 423.122803,163.952942 
	C423.087799,165.409546 422.958160,166.103943 423.100983,166.736832 
	C426.599823,182.239227 429.465424,197.924362 433.826050,213.181915 
	C438.738922,230.371826 446.720306,246.496704 458.696594,259.819397 
	C474.702301,277.624603 492.740631,293.382202 512.411011,307.159027 
	C531.694763,320.665009 552.203064,332.050537 574.223694,340.277893 
	C585.465271,344.477936 597.479858,346.609070 609.145020,349.675293 
	C610.172913,349.766144 611.200867,349.857025 612.798401,350.208252 
	C613.966980,350.518860 614.565918,350.569153 615.164856,350.619415 
	C626.296692,351.059723 637.441467,351.303040 648.554077,352.035187 
	C653.140747,352.337341 657.797363,353.252075 662.180298,354.647919 
	C673.675659,358.308960 679.571838,368.014465 676.982666,379.788391 
	C675.426331,386.865479 672.895325,393.800781 670.117310,400.516388 
	C667.322693,407.272003 663.301941,413.518707 660.481689,420.265594 
	C653.309448,437.423218 656.399292,447.740479 669.942688,457.910736 
	C676.829529,463.082214 683.109680,468.709564 684.420959,477.853973 
	C684.766907,480.266418 684.736389,482.804840 684.424866,485.226990 
	C683.172546,494.963470 684.567444,503.792542 692.269348,510.768860 
	C702.281799,519.838135 706.614197,531.198242 706.120178,544.641174 
	C705.553833,560.054321 708.856262,574.388733 718.881531,586.608459 
	C720.985352,589.172791 723.267883,591.594666 725.532471,594.022095 
	C730.521790,599.370178 735.840393,604.441223 740.496521,610.062805 
	C746.970642,617.879517 746.428162,626.800537 740.020142,634.579895 
	C725.340271,652.401489 705.549988,662.518188 684.764526,670.838928 
	C666.100769,678.310425 647.059387,684.836304 628.209167,691.845581 
	C613.700439,697.240479 602.031921,706.882202 593.273560,719.117798 
	C583.253784,733.115540 574.994202,748.374084 565.991272,763.098022 
	C564.345032,765.790405 563.146301,768.850708 561.095093,771.169861 
	C559.593018,772.868164 556.612976,774.969177 555.049377,774.478088 
	C553.009705,773.837585 551.075500,771.040161 550.267639,768.756287 
	C549.242920,765.859375 549.041077,762.540344 549.094299,759.413696 
	C549.542908,733.069336 547.095947,706.846497 542.549194,681.055420 
	C537.217896,650.813965 528.652161,621.363159 515.396729,593.297302 
	C503.147766,567.362305 489.636139,542.283325 473.157654,518.825378 
	C455.691895,493.962036 437.787109,469.400024 420.685669,444.289825 
	C403.132568,418.516449 388.365997,391.149261 377.910339,361.679260 
	C372.126709,345.377747 367.500397,328.672302 366.986694,311.233673 
	C366.591003,297.800934 366.931458,284.346466 367.219482,270.204529 
	C367.536682,268.285889 367.579010,267.064392 367.621307,265.842926 
	C367.712189,264.495209 367.803070,263.147461 368.181000,261.150940 
	C368.572083,258.964386 368.676117,257.426605 368.780151,255.888809 
	C368.812744,255.466553 368.845367,255.044296 369.178467,254.054962 
	C369.895874,250.282761 370.312805,247.077637 370.729706,243.872513 
	C370.791748,243.153061 370.853760,242.433594 371.198456,241.119675 
	C371.565460,239.307526 371.649780,238.089859 371.734131,236.872177 
z"/>
<path fill="#0C0C0C" opacity="1.000000" stroke="none" 
	d="
M492.636780,996.592163 
	C495.599823,977.611694 511.067139,965.425232 529.834961,966.897949 
	C546.747192,968.225098 560.644287,983.718811 560.479858,1001.063538 
	C560.309021,1019.073792 546.056946,1033.982422 527.758484,1034.790161 
	C508.207123,1035.653320 490.309479,1020.085022 492.636780,996.592163 
M509.860870,976.227417 
	C508.705109,977.178772 507.492920,978.069946 506.402283,979.090942 
	C496.273743,988.572388 494.142914,1003.940369 501.239471,1016.130798 
	C507.669342,1027.176147 521.832092,1032.935303 533.997864,1029.274902 
	C546.133118,1025.623779 553.517395,1017.440918 555.381958,1004.937927 
	C557.161926,993.001526 552.627563,983.200684 542.817322,976.429382 
	C532.401733,969.240051 521.398926,969.176636 509.860870,976.227417 
z"/>
<path fill="#050505" opacity="1.000000" stroke="none" 
	d="
M684.714539,1142.811646 
	C673.553528,1147.911377 662.144531,1145.375732 650.748291,1146.047974 
	C650.748291,1123.832397 650.748291,1102.050903 650.748291,1079.650024 
	C661.138916,1079.872925 671.624329,1078.044312 681.720337,1081.856934 
	C694.369202,1086.633667 700.980652,1096.268921 702.305664,1109.427002 
	C703.784485,1124.111206 698.100281,1135.368896 684.714539,1142.811646 
M697.672058,1117.866943 
	C699.670532,1093.247925 683.602722,1080.489136 655.434021,1084.492432 
	C655.434021,1103.329224 655.434021,1122.190552 655.434021,1141.561890 
	C660.128540,1141.561890 664.583313,1141.582886 669.037781,1141.557983 
	C683.901672,1141.474854 694.230957,1133.165649 697.672058,1117.866943 
z"/>
<path fill="#050505" opacity="1.000000" stroke="none" 
	d="
M438.377747,1091.652222 
	C446.803955,1103.741211 448.265442,1116.394531 441.690155,1129.148315 
	C435.442108,1141.267456 424.580078,1146.265381 411.125580,1146.026001 
	C405.469818,1145.925293 399.810760,1146.009277 393.847656,1146.009277 
	C393.847656,1123.903564 393.847656,1102.009644 393.847656,1078.704956 
	C404.028137,1079.661987 414.231293,1079.682373 423.926758,1081.911133 
	C429.117279,1083.104248 433.433533,1088.100586 438.377747,1091.652222 
M439.143768,1102.531128 
	C435.904327,1093.083496 429.235046,1087.042358 419.651489,1085.170288 
	C412.780823,1083.828247 405.598267,1084.082764 398.499634,1083.621338 
	C398.499634,1103.433594 398.499634,1122.291504 398.499634,1141.105713 
	C429.117371,1145.011230 446.284332,1129.006348 439.143768,1102.531128 
z"/>
<path fill="#090909" opacity="1.000000" stroke="none" 
	d="
M289.157898,1030.713867 
	C289.157684,1021.282471 289.157684,1012.323730 289.157684,1003.105652 
	C275.763092,1003.105652 262.693848,1003.105652 249.328186,1003.105652 
	C249.328186,1013.345581 249.328186,1023.454773 249.328186,1033.779785 
	C247.623199,1033.779785 246.213623,1033.779785 244.667145,1033.779785 
	C244.667145,1011.767639 244.667145,989.991028 244.667145,967.873535 
	C246.167374,967.873535 247.529633,967.873535 249.231628,967.873535 
	C249.231628,977.993591 249.231628,987.934143 249.231628,998.197388 
	C262.492554,998.197388 275.424774,998.197388 288.852112,998.197388 
	C288.852112,988.349792 288.852112,978.300171 288.852112,967.885010 
	C290.704041,967.747437 292.093933,967.644165 293.763489,967.520142 
	C293.763489,989.762268 293.763489,1011.660522 293.763489,1033.818604 
	C291.643005,1033.826416 288.910706,1035.365479 289.157898,1030.713867 
z"/>
<path fill="#090909" opacity="1.000000" stroke="none" 
	d="
M275.999695,1110.526123 
	C284.821503,1110.526245 293.142395,1110.526245 301.940521,1110.526245 
	C301.940521,1100.309448 301.940521,1090.243774 301.940521,1079.824341 
	C303.786682,1079.732300 305.174713,1079.663208 306.799133,1079.582275 
	C306.799133,1101.832275 306.799133,1123.732300 306.799133,1145.757690 
	C305.280975,1145.757690 303.900299,1145.757690 302.128937,1145.757690 
	C302.128937,1135.427368 302.128937,1125.345581 302.128937,1115.070068 
	C288.658905,1115.070068 275.582611,1115.070068 262.228088,1115.070068 
	C262.228088,1125.409668 262.228088,1135.526001 262.228088,1145.826904 
	C260.661621,1145.826904 259.372894,1145.826904 257.803497,1145.826904 
	C257.803497,1124.013916 257.803497,1102.273438 257.803497,1079.960815 
	C258.869080,1079.814941 260.222015,1079.629639 262.141846,1079.366699 
	C262.141846,1089.844482 262.141846,1099.892456 262.141846,1110.526123 
	C266.930328,1110.526123 271.214539,1110.526123 275.999695,1110.526123 
z"/>
<path fill="#0A0A0A" opacity="1.000000" stroke="none" 
	d="
M722.272949,967.563599 
	C723.152771,968.781738 723.599915,969.966919 724.295532,971.810791 
	C711.486511,971.810791 699.552124,971.810791 687.417847,971.810791 
	C687.417847,980.679871 687.417847,989.117615 687.417847,997.927368 
	C697.996216,997.927368 708.586548,997.927368 719.599670,997.927368 
	C719.778320,999.604126 719.922913,1000.961975 720.122437,1002.835144 
	C708.982849,1002.835144 698.223511,1002.835144 687.342773,1002.835144 
	C687.342773,1011.783264 687.342773,1020.254272 687.342773,1029.301514 
	C699.790894,1029.301514 712.190186,1029.301514 724.798706,1029.301514 
	C724.798706,1031.127686 724.798706,1032.379395 724.798706,1033.826172 
	C710.827454,1033.826172 696.901672,1033.826172 682.770142,1033.826172 
	C682.770142,1011.781433 682.770142,989.887939 682.770142,967.530640 
	C695.955322,967.530640 708.897827,967.530640 722.272949,967.563599 
z"/>
<path fill="#070707" opacity="1.000000" stroke="none" 
	d="
M386.201294,1028.701660 
	C386.201294,1030.649536 386.201294,1032.134644 386.201294,1033.814941 
	C384.690704,1033.814941 383.403961,1033.814941 381.821838,1033.814941 
	C381.821838,1011.870544 381.821838,989.983276 381.821838,967.876160 
	C388.367096,967.876160 394.849060,967.385925 401.225739,967.995972 
	C409.901978,968.825989 415.880554,974.632629 417.464752,982.574463 
	C419.164246,991.094177 415.735626,998.935486 408.315094,1003.504211 
	C407.770874,1003.839172 407.233673,1004.185547 406.424164,1004.696350 
	C412.255402,1014.291748 418.024323,1023.784607 423.848022,1033.367554 
	C420.326874,1034.970947 418.463501,1033.623169 416.736969,1030.636475 
	C412.577759,1023.441528 407.959625,1016.511658 403.812439,1009.310303 
	C402.268768,1006.629822 400.520386,1005.686584 397.491058,1005.941284 
	C393.864777,1006.246338 390.193237,1006.013367 386.201324,1006.013367 
	C386.201324,1013.633667 386.201324,1020.936218 386.201294,1028.701660 
M386.184082,995.351807 
	C386.184082,997.430603 386.184082,999.509460 386.184082,1002.112244 
	C391.749603,1001.761841 396.592804,1001.854431 401.289764,1001.070496 
	C408.834656,999.811218 412.966156,994.393555 412.998383,986.662842 
	C413.028198,979.507690 408.714783,973.544067 401.596436,972.435852 
	C396.662720,971.667664 391.512787,972.288086 386.184082,972.288086 
	C386.184082,979.813782 386.184082,987.098511 386.184082,995.351807 
z"/>
<path fill="#070707" opacity="1.000000" stroke="none" 
	d="
M591.534424,1105.999512 
	C591.550903,1097.337158 591.563843,1089.174683 591.597473,1081.012329 
	C591.598694,1080.710083 591.801086,1080.408569 591.951172,1079.991455 
	C598.678833,1079.991455 605.508423,1079.387939 612.183777,1080.144653 
	C620.472839,1081.084229 626.194336,1087.216064 627.582520,1095.024170 
	C629.027222,1103.150391 625.635925,1110.923584 618.772095,1115.218506 
	C618.081421,1115.650757 617.390320,1116.082275 616.419617,1116.688843 
	C622.231689,1126.252197 628.000366,1135.744141 633.881531,1145.421143 
	C630.409973,1146.855591 628.506470,1145.715088 626.765991,1142.688354 
	C622.624756,1135.486328 617.990295,1128.567871 613.851074,1121.364746 
	C612.314819,1118.691162 610.592285,1117.701782 607.561768,1117.944458 
	C603.932922,1118.235107 600.263062,1118.013184 596.297729,1118.013184 
	C596.297729,1127.410645 596.297729,1136.516479 596.297729,1145.814209 
	C594.695557,1145.814209 593.409058,1145.814209 591.534424,1145.814209 
	C591.534424,1132.677612 591.534424,1119.588623 591.534424,1105.999512 
M620.771057,1107.037231 
	C625.789368,1096.445923 621.768799,1086.213379 611.369324,1084.384521 
	C606.587646,1083.543701 601.535461,1084.241333 596.513916,1084.241333 
	C596.513916,1094.057861 596.513916,1103.767578 596.513916,1113.816162 
	C599.972656,1113.816162 603.117310,1113.940308 606.248657,1113.788696 
	C611.685730,1113.525391 616.861755,1112.515747 620.771057,1107.037231 
z"/>
<path fill="#0E0E0E" opacity="1.000000" stroke="none" 
	d="
M358.248962,1140.702026 
	C365.613312,1136.966553 368.497345,1131.011841 368.503845,1123.413452 
	C368.516113,1109.090576 368.507385,1094.767700 368.507385,1079.926270 
	C369.895966,1079.786621 371.233154,1079.652222 372.634888,1079.511230 
	C372.820312,1080.372314 373.008453,1080.839722 373.009003,1081.307373 
	C373.026337,1095.633301 373.071136,1109.959351 373.013733,1124.285034 
	C372.961060,1137.433105 364.005280,1146.466431 350.776825,1146.854004 
	C337.621674,1147.239502 327.626465,1138.605225 327.252716,1125.592651 
	C326.818298,1110.467285 327.151398,1095.319824 327.151398,1079.850830 
	C328.769073,1079.850830 330.134674,1079.850830 331.858124,1079.850830 
	C331.858124,1094.548706 331.765167,1109.009888 331.891266,1123.469238 
	C331.973297,1132.874756 336.668854,1139.938110 344.653137,1141.450317 
	C348.878174,1142.250610 353.466919,1141.130737 358.248962,1140.702026 
z"/>
<path fill="#0B0B0B" opacity="1.000000" stroke="none" 
	d="
M555.391541,1096.510620 
	C562.085022,1112.999756 568.603577,1129.146118 575.314148,1145.768188 
	C573.484985,1145.873291 571.955078,1145.961060 570.281372,1146.057251 
	C567.336853,1138.655640 564.470764,1131.451050 561.515686,1124.022827 
	C552.478027,1124.022827 543.500854,1123.924927 534.531372,1124.142578 
	C533.369202,1124.170898 531.718079,1125.593384 531.196838,1126.770142 
	C528.914917,1131.921631 526.980164,1137.226318 524.890747,1142.463989 
	C523.441711,1146.096313 523.420837,1146.088013 518.931946,1145.558350 
	C528.151733,1122.797363 537.350342,1100.088745 547.067810,1076.099243 
	C550.090149,1083.542480 552.653381,1089.855225 555.391541,1096.510620 
M534.585693,1119.665771 
	C542.776306,1119.665771 550.966919,1119.665771 559.842041,1119.665771 
	C555.533264,1108.706421 551.510803,1098.475342 546.989380,1086.975342 
	C542.460327,1098.424805 538.412598,1108.657349 534.585693,1119.665771 
z"/>
<path fill="#0B0B0B" opacity="1.000000" stroke="none" 
	d="
M333.046509,1012.021729 
	C323.261230,1012.022095 323.262817,1012.022705 319.776703,1020.748718 
	C318.421204,1024.141724 316.890533,1027.476318 315.746704,1030.938965 
	C314.733917,1034.004883 312.975037,1034.758667 309.960754,1033.518188 
	C318.993134,1011.192688 328.021118,988.873413 337.065552,966.560730 
	C337.235931,966.140442 337.602142,965.799561 338.366241,964.749023 
	C343.124237,976.512939 347.675720,987.789490 352.245605,999.058594 
	C356.863403,1010.445557 361.499420,1021.825134 366.209686,1033.410278 
	C362.649170,1034.898804 360.922150,1033.854858 359.706879,1030.306274 
	C357.616669,1024.202393 355.005615,1018.276917 352.511566,1012.021729 
	C346.174683,1012.021729 339.855957,1012.021729 333.046509,1012.021729 
M332.404694,988.910156 
	C329.987762,995.045288 327.570831,1001.180359 325.059875,1007.554199 
	C333.707703,1007.554199 341.887268,1007.554199 350.802795,1007.554199 
	C346.550415,996.764526 342.486877,986.453979 337.993713,975.053345 
	C335.921082,980.281616 334.345551,984.255859 332.404694,988.910156 
z"/>
<path fill="#0D0D0D" opacity="1.000000" stroke="none" 
	d="
M773.642151,1002.326782 
	C779.899048,1007.739441 781.204895,1014.295044 779.099426,1021.582153 
	C776.993774,1028.870239 771.682373,1032.748657 764.437378,1034.226929 
	C754.835693,1036.186279 746.445557,1033.174072 738.126221,1027.898560 
	C738.915161,1026.665039 739.571228,1025.639404 740.304077,1024.493530 
	C741.114685,1024.870972 741.713684,1025.098389 742.262512,1025.413330 
	C748.890564,1029.216309 755.712463,1032.038330 763.611267,1030.029785 
	C769.958618,1028.415649 774.305359,1023.985413 775.012268,1018.279358 
	C775.841309,1011.587463 773.497070,1006.998657 766.940552,1003.743347 
	C761.740845,1001.161560 756.220947,999.231750 750.970703,996.743469 
	C743.452087,993.180054 740.321106,987.929382 741.223145,981.035767 
	C742.072876,974.541626 747.039978,969.571411 754.440918,967.785889 
	C762.480225,965.846313 769.880310,967.979919 777.223572,971.132996 
	C776.995605,974.512024 775.666687,974.484436 772.747925,973.882019 
	C767.007751,972.697266 761.048889,971.756653 755.234680,972.001770 
	C750.490356,972.201782 747.053528,975.679016 746.126953,980.647766 
	C745.136902,985.956726 747.645386,989.724243 752.264404,992.021057 
	C759.242737,995.490906 766.326233,998.749146 773.642151,1002.326782 
z"/>
<path fill="#0D0D0D" opacity="1.000000" stroke="none" 
	d="
M176.246048,1009.593262 
	C174.096176,996.869141 176.220337,985.638733 185.194992,976.414673 
	C195.780609,965.534668 212.528198,963.659912 226.871735,971.800720 
	C226.379425,973.012817 225.866333,974.276062 225.355545,975.533630 
	C206.920029,968.474609 194.758881,970.866577 185.906906,983.098022 
	C177.967072,994.068848 178.354660,1010.029236 186.751007,1020.268188 
	C193.985428,1029.090332 208.510376,1034.552124 225.184311,1025.877319 
	C225.835098,1026.905762 226.502670,1027.960693 227.333511,1029.273560 
	C222.292374,1033.121216 216.552185,1034.447876 210.609573,1034.808105 
	C194.437088,1035.787842 181.651947,1026.436890 176.246048,1009.593262 
z"/>
<path fill="#0E0E0E" opacity="1.000000" stroke="none" 
	d="
M475.861389,1129.305908 
	C469.102722,1112.684814 462.464508,1096.429443 455.786499,1080.076538 
	C459.406921,1078.802368 461.133667,1079.600098 462.460785,1083.086426 
	C468.841522,1099.848999 475.538147,1116.491455 482.139557,1133.169800 
	C482.668640,1134.506470 483.326416,1135.792114 484.289459,1137.900879 
	C491.518738,1119.215210 498.502594,1101.366821 505.285492,1083.442505 
	C506.484528,1080.273804 507.949310,1078.610474 512.022705,1080.001221 
	C502.769714,1102.750000 493.525208,1125.478027 483.896759,1149.149902 
	C480.947205,1141.891113 478.464539,1135.781494 475.861389,1129.305908 
z"/>
<path fill="#F4E3D7" opacity="1.000000" stroke="none" 
	d="
M609.012329,349.351257 
	C597.479858,346.609070 585.465271,344.477936 574.223694,340.277893 
	C552.203064,332.050537 531.694763,320.665009 512.411011,307.159027 
	C492.740631,293.382202 474.702301,277.624603 458.696594,259.819397 
	C446.720306,246.496704 438.738922,230.371826 433.826050,213.181915 
	C429.465424,197.924362 426.599823,182.239227 423.100983,166.736832 
	C422.958160,166.103943 423.087799,165.409546 423.166382,164.312653 
	C424.479553,168.334763 426.179199,172.716980 426.876312,177.253250 
	C430.386108,200.092361 437.313934,221.785385 448.997742,241.724762 
	C457.438019,256.128784 468.943329,268.021484 481.870911,278.567963 
	C492.260773,287.044159 502.069946,296.293121 512.882446,304.176453 
	C530.560120,317.065063 549.434143,328.155640 569.931396,336.003784 
	C582.703796,340.894165 595.882996,344.722321 609.012329,349.351257 
z"/>
<path fill="#080808" opacity="1.000000" stroke="none" 
	d="
M588.678589,972.853027 
	C583.292358,972.176208 578.003113,972.010132 572.714172,971.836853 
	C569.296265,971.724854 569.296448,971.720093 569.648682,967.718628 
	C583.896057,967.718628 598.157654,967.718628 612.407410,967.718628 
	C613.339783,970.460144 613.014343,971.975037 609.727661,971.878967 
	C604.426819,971.723999 599.118225,971.837280 593.458313,971.837280 
	C593.458313,992.511353 593.458313,1012.876526 593.458313,1033.672607 
	C591.793030,1033.796997 590.449829,1033.897339 588.775757,1034.022339 
	C588.775757,1013.548828 588.775757,993.454712 588.678589,972.853027 
z"/>
<path fill="#080808" opacity="1.000000" stroke="none" 
	d="
M647.202515,1013.000366 
	C647.202515,1020.150024 647.202515,1026.799805 647.202515,1033.736084 
	C645.841492,1033.835327 644.596619,1033.926025 642.875488,1034.051514 
	C642.875488,1013.271851 642.875488,992.762085 642.875488,971.826721 
	C636.157410,971.826721 629.889221,971.826721 623.717896,971.826721 
	C622.614502,968.819824 623.015015,967.463013 626.260071,967.488953 
	C639.552734,967.595032 652.846741,967.533203 666.115906,967.533203 
	C667.553528,970.608032 666.898804,971.949463 663.530823,971.870178 
	C658.233337,971.745422 652.930847,971.837036 647.202515,971.837036 
	C647.202515,985.653381 647.202515,999.076904 647.202515,1013.000366 
z"/>
<path fill="#010101" opacity="1.000000" stroke="none" 
	d="
M445.183411,1004.000122 
	C445.183411,1012.625916 445.183411,1020.751648 445.183411,1029.375488 
	C457.442291,1029.375488 469.337128,1029.375488 481.525269,1029.375488 
	C481.636993,1031.083252 481.717377,1032.312378 481.813354,1033.779053 
	C468.137085,1033.779053 454.695190,1033.779053 440.933960,1033.779053 
	C440.814087,1032.761353 440.575470,1031.673584 440.574219,1030.585693 
	C440.551697,1010.950012 440.597748,991.314209 440.515137,971.678894 
	C440.502625,968.700500 440.761688,966.579407 445.183411,968.038025 
	C445.183411,979.669189 445.183411,991.584656 445.183411,1004.000122 
z"/>
<path fill="#F4E3D7" opacity="1.000000" stroke="none" 
	d="
M418.432129,116.711777 
	C417.526062,115.871056 416.929718,114.716339 416.171539,113.680046 
	C413.345215,109.817039 409.393402,109.923386 406.992798,114.044441 
	C405.745697,116.185394 404.661346,118.482750 403.904938,120.838371 
	C396.753662,143.109024 389.401031,165.321640 382.719116,187.733658 
	C379.321228,199.130692 377.175323,210.900986 374.157745,222.743134 
	C373.759888,221.595963 373.304535,220.116119 373.629578,218.834137 
	C379.186157,196.919342 384.390778,174.900116 390.634583,153.180328 
	C394.556580,139.537247 400.128815,126.372276 404.832581,112.947937 
	C406.212952,109.008377 408.171844,105.872055 412.800995,106.201164 
	C416.217285,106.444054 418.622894,110.996422 418.432129,116.711777 
z"/>
<path fill="#141414" opacity="1.000000" stroke="none" 
	d="
M552.451721,1061.523682 
	C555.017151,1065.256348 555.426758,1069.239502 551.848755,1071.403687 
	C549.563477,1072.785889 545.436340,1072.742310 542.873962,1071.632324 
	C539.750366,1070.279175 539.387329,1066.645386 540.832336,1063.374634 
	C542.674988,1059.203857 547.174988,1058.396973 552.451721,1061.523682 
M543.014771,1065.712769 
	C544.089966,1067.369995 544.839966,1069.592529 546.364075,1070.469604 
	C547.258118,1070.983887 549.911316,1069.750122 550.794739,1068.570068 
	C551.536804,1067.578979 551.375549,1065.257446 550.712952,1063.999878 
	C549.154358,1061.041504 546.291138,1061.505371 543.014771,1065.712769 
z"/>
<path fill="#F4E3D7" opacity="1.000000" stroke="none" 
	d="
M370.393982,244.004913 
	C370.312805,247.077637 369.895874,250.282761 369.176758,253.737198 
	C369.269135,250.703445 369.663696,247.420395 370.393982,244.004913 
z"/>
<path fill="#F4E3D7" opacity="1.000000" stroke="none" 
	d="
M368.456360,255.998383 
	C368.676117,257.426605 368.572083,258.964386 368.170776,260.744324 
	C367.959869,259.360291 368.046204,257.734131 368.456360,255.998383 
z"/>
<path fill="#F4E3D7" opacity="1.000000" stroke="none" 
	d="
M371.428772,236.979736 
	C371.649780,238.089859 371.565460,239.307526 371.194885,240.758179 
	C370.980225,239.689850 371.051819,238.388580 371.428772,236.979736 
z"/>
<path fill="#F4E3D7" opacity="1.000000" stroke="none" 
	d="
M372.398987,230.972260 
	C372.617096,232.085297 372.534424,233.309509 372.155151,234.759247 
	C371.938416,233.684326 372.018311,232.383896 372.398987,230.972260 
z"/>
<path fill="#F4E3D7" opacity="1.000000" stroke="none" 
	d="
M367.331299,265.968445 
	C367.579010,267.064392 367.536682,268.285889 367.216187,269.750916 
	C366.972412,268.694275 367.006836,267.394104 367.331299,265.968445 
z"/>
<path fill="#F4E3D7" opacity="1.000000" stroke="none" 
	d="
M373.434998,224.959595 
	C373.639252,225.769653 373.554199,226.672745 373.188202,227.783447 
	C372.986755,227.011566 373.066254,226.032120 373.434998,224.959595 
z"/>
<path fill="#F4E3D7" opacity="1.000000" stroke="none" 
	d="
M423.325348,160.791687 
	C422.779602,160.172913 422.464844,159.355484 422.250427,158.191772 
	C422.752625,158.761337 423.154480,159.677185 423.325348,160.791687 
z"/>
<path fill="#F4E3D7" opacity="1.000000" stroke="none" 
	d="
M422.330872,152.790161 
	C421.796539,152.165527 421.488617,151.341980 421.301117,150.174774 
	C421.800140,150.751160 422.178711,151.671204 422.330872,152.790161 
z"/>
<path fill="#F4E3D7" opacity="1.000000" stroke="none" 
	d="
M421.277649,142.801117 
	C420.741608,142.175476 420.442474,141.354767 420.244934,140.190567 
	C420.735870,140.766724 421.125183,141.686401 421.277649,142.801117 
z"/>
<path fill="#F4E3D7" opacity="1.000000" stroke="none" 
	d="
M420.299255,132.798126 
	C419.775116,132.164719 419.481415,131.336014 419.316223,130.167969 
	C419.806427,130.753342 420.168091,131.678085 420.299255,132.798126 
z"/>
<path fill="#F4E3D7" opacity="1.000000" stroke="none" 
	d="
M419.307281,121.793900 
	C418.762756,121.175278 418.450256,120.358063 418.236755,119.195206 
	C418.736969,119.764801 419.138153,120.680054 419.307281,121.793900 
z"/>
<path fill="#F4E3D7" opacity="1.000000" stroke="none" 
	d="
M615.076721,350.371307 
	C614.565918,350.569153 613.966980,350.518860 613.186035,350.211182 
	C613.665588,350.010284 614.327087,350.066742 615.076721,350.371307 
z"/>
</svg>