<?xml version="1.0" encoding="UTF-8" standalone="no"?><!DOCTYPE svg PUBLIC "-//W3C//DTD SVG 1.1//EN" "http://www.w3.org/Graphics/SVG/1.1/DTD/svg11.dtd"><svg width="100%" height="100%" viewBox="0 0 2099 927" version="1.1" xmlns="http://www.w3.org/2000/svg" xmlns:xlink="http://www.w3.org/1999/xlink" xml:space="preserve" xmlns:serif="http://www.serif.com/" style="fill-rule:evenodd;clip-rule:evenodd;stroke-linejoin:round;stroke-miterlimit:2;"><text x="-6.422px" y="532.699px" style="font-family:'DMSerifDisplay-Regular', 'DM Serif Display';font-size:291.921px;fill:#333;">L<tspan x="147.128px 347.386px 538.01px " y="532.699px 532.699px 532.699px ">OOK</tspan>S     B<tspan x="1372.61px 1572.87px 1763.49px " y="532.699px 532.699px 532.699px ">OOK</tspan>S</text><g id="Book"><g><path d="M487.764,80.649l-105.306,28.045c-7.716,1.953 -13.121,8.895 -13.121,16.854c0,0 0.472,32.716 2.337,69.809c2.45,48.75 7.026,104.714 7.026,104.714c0,4.427 3.595,8.022 8.022,8.022c4.428,-0 8.022,-3.595 8.022,-8.022c0,-0 4.576,-55.964 7.027,-104.714c1.122,-22.322 1.739,-43.058 2.053,-56.034l85.362,-20.467l5.578,149.898c0.022,3.147 2.596,5.683 5.743,5.661c3.147,-0.023 5.684,-2.597 5.661,-5.744l8.256,-203.657c55.613,-19.114 108.126,-26.775 157.235,-27.778c39.226,-0.801 76.286,2.889 111.246,10.213c48.482,10.156 92.839,26.817 132.527,47.204c44.961,23.096 84.096,50.19 116.041,77.101c0.001,0 2.111,49.122 2.111,49.122c0,3.574 2.902,6.476 6.476,6.476c3.574,-0 6.475,-2.902 6.475,-6.476l2.291,-53.327c0,-2.449 -1.025,-4.787 -2.826,-6.447c-31.367,-31.221 -70.281,-63.947 -116.615,-91.606c-40.834,-24.375 -87.235,-44.968 -138.578,-57.26c-37.59,-8.999 -77.887,-13.652 -120.306,-11.854c-54.962,2.328 -113.387,15.679 -174.793,41.54c-5.353,2.096 -8.882,7.251 -8.901,13l0.957,25.727Z" style="fill:#333;"/></g><g><path d="M1038.53,850.497c28.478,0.819 12.992,-13.121 12.992,-16.977l-4.985,-159.019c0,-3.574 -2.901,-6.476 -6.475,-6.476c-3.574,0 -6.476,2.902 -6.476,6.476l-4.37,139.41c-47.114,-26.887 -93.085,-47.633 -137.513,-63.122c-38.159,-13.302 -75.13,-22.744 -110.49,-29.131c-29.664,-5.358 -58.205,-8.618 -85.374,-9.948c-19.886,-0.973 -39.043,-0.954 -57.347,-0.039c-48.191,2.409 -90.423,10.102 -125.478,18.794c-0.001,-0 -6.844,-126.451 -6.844,-126.451c-0.002,-3.147 -2.559,-5.701 -5.706,-5.699c-3.147,0.002 -5.7,2.559 -5.698,5.706l-7.584,143.5c0.002,4.085 1.871,7.944 5.073,10.479c3.202,2.536 7.387,3.469 11.363,2.535c36.734,-7.329 82.746,-12.417 135.864,-12.672c17.409,-0.083 35.572,0.284 54.457,1.276c25.828,1.357 52.983,3.839 81.31,8.195c33.957,5.22 69.566,12.92 106.592,23.963c40.079,11.953 81.81,27.563 124.738,48.191c-48.681,-10.511 -105.249,-18.039 -165.44,-20.891c-43.824,-2.076 -89.519,-1.714 -135.348,1.676c-45.249,3.346 -90.659,9.504 -134.417,19.162c-62.069,13.7 -120.78,34.351 -171.882,61.577c0,0 -7.066,-325.065 -7.066,-325.065c0,-3.147 -2.555,-5.703 -5.702,-5.703c-3.147,0 -5.702,2.556 -5.702,5.703l-7.552,347.411c0,4.725 2.516,9.092 6.603,11.464c4.087,2.371 9.128,2.387 13.229,0.042c53.809,-29.841 117.649,-50.081 184.804,-64.403c42.555,-9.075 86.449,-15.783 130.29,-20.142c44.711,-4.445 89.278,-6.666 132.176,-6.749c73.887,-0.144 141.533,15.303 197.958,16.927Z" style="fill:#333;"/></g><g><path d="M1591.52,80.649l105.306,28.045c7.716,1.953 13.121,8.895 13.121,16.854c-0,0 -0.472,32.716 -2.337,69.809c-2.45,48.75 -7.026,104.714 -7.026,104.714c-0,4.427 -3.595,8.022 -8.022,8.022c-4.427,-0 -8.022,-3.595 -8.022,-8.022c0,-0 -4.576,-55.964 -7.027,-104.714c-1.122,-22.322 -1.739,-43.058 -2.053,-56.034l-85.362,-20.467l-5.578,149.898c-0.022,3.147 -2.596,5.683 -5.743,5.661c-3.147,-0.023 -5.684,-2.597 -5.661,-5.744l-8.256,-203.657c-55.613,-19.114 -108.126,-26.775 -157.235,-27.778c-39.226,-0.801 -76.286,2.889 -111.246,10.213c-48.482,10.156 -92.839,26.817 -132.527,47.204c-44.961,23.096 -84.096,50.19 -116.041,77.101c-0.001,0 -2.111,49.122 -2.111,49.122c0,3.574 -2.902,6.476 -6.476,6.476c-3.573,-0 -6.475,-2.902 -6.475,-6.476l-2.291,-53.327c-0,-2.449 1.025,-4.787 2.826,-6.447c31.367,-31.221 70.281,-63.947 116.615,-91.606c40.834,-24.375 87.235,-44.968 138.578,-57.26c37.59,-8.999 77.887,-13.652 120.306,-11.854c54.962,2.328 113.387,15.679 174.793,41.54c5.353,2.096 8.882,7.251 8.901,13l-0.957,25.727Z" style="fill:#333;"/></g><g><path d="M1041.54,850.497c-28.478,0.819 -12.992,-13.121 -12.992,-16.977l4.985,-159.019c0,-3.574 2.902,-6.476 6.476,-6.476c3.574,0 6.475,2.902 6.475,6.476l4.37,139.41c47.114,-26.887 93.085,-47.633 137.514,-63.122c38.158,-13.302 75.129,-22.744 110.489,-29.131c29.664,-5.358 58.205,-8.618 85.374,-9.948c19.886,-0.973 39.043,-0.954 57.348,-0.039c48.191,2.409 90.422,10.102 125.478,18.794c-0,-0 6.843,-126.451 6.843,-126.451c0.002,-3.147 2.559,-5.701 5.706,-5.699c3.147,0.002 5.701,2.559 5.699,5.706l7.584,143.5c-0.003,4.085 -1.871,7.944 -5.073,10.479c-3.203,2.536 -7.387,3.469 -11.364,2.535c-36.734,-7.329 -82.745,-12.417 -135.864,-12.672c-17.408,-0.083 -35.572,0.284 -54.457,1.276c-25.828,1.357 -52.983,3.839 -81.31,8.195c-33.957,5.22 -69.566,12.92 -106.592,23.963c-40.079,11.953 -81.81,27.563 -124.737,48.191c48.68,-10.511 105.248,-18.039 165.439,-20.891c43.825,-2.076 89.519,-1.714 135.348,1.676c45.249,3.346 90.659,9.504 134.417,19.162c62.069,13.7 120.78,34.351 171.882,61.577c0,0 7.066,-325.065 7.066,-325.065c-0,-3.147 2.555,-5.703 5.702,-5.703c3.147,0 5.702,2.556 5.702,5.703l7.552,347.411c-0,4.725 -2.516,9.092 -6.603,11.464c-4.087,2.371 -9.127,2.387 -13.229,0.042c-53.809,-29.841 -117.649,-50.081 -184.804,-64.403c-42.554,-9.075 -86.449,-15.783 -130.29,-20.142c-44.711,-4.445 -89.278,-6.666 -132.176,-6.749c-73.887,-0.144 -141.532,15.303 -197.958,16.927Z" style="fill:#333;"/></g></g><g id="scissor"><g><path d="M1095.8,523.19c-18.715,18.714 -18.745,49.041 -0.106,67.68c18.639,18.64 48.966,18.609 67.681,-0.105c18.714,-18.715 18.745,-49.042 0.106,-67.681c-18.64,-18.639 -48.966,-18.609 -67.681,0.106Zm15.259,15.258c10.276,-10.276 26.928,-10.34 37.163,-0.105c10.234,10.234 10.17,26.887 -0.106,37.163c-10.276,10.276 -26.928,10.34 -37.163,0.105c-10.235,-10.234 -10.17,-26.886 0.106,-37.163Z" style="fill:#333;"/><path d="M983.481,523.19c18.715,18.714 18.745,49.041 0.106,67.68c-18.639,18.64 -48.966,18.609 -67.681,-0.105c-18.714,-18.715 -18.745,-49.042 -0.105,-67.681c18.639,-18.639 48.966,-18.609 67.68,0.106Zm-15.259,15.258c-10.276,-10.276 -26.928,-10.34 -37.163,-0.105c-10.234,10.234 -10.17,26.887 0.106,37.163c10.276,10.276 26.928,10.34 37.163,0.105c10.235,-10.234 10.17,-26.886 -0.106,-37.163Z" style="fill:#333;"/></g><g><path d="M1114.22,519.515c0,0 -23.342,-26.495 -47.683,-52.942c-11.495,-12.49 -23.202,-24.967 -32.804,-34.663c-2.235,-2.257 -4.028,-4.233 -5.293,-6.124c-0.823,-1.23 -1.566,-2.195 -1.531,-3.32c0.103,-3.344 2.968,-6.352 7.026,-10.981c6.932,-7.908 20.96,-25.125 37.225,-45.398c31.856,-39.704 72.365,-91.149 84.61,-106.522c2.454,-2.987 2.022,-7.405 -0.965,-9.859c-2.987,-2.455 -7.405,-2.022 -9.859,0.965c-12.701,14.985 -54.738,65.145 -87.772,103.84c-16.632,19.481 -30.959,36.026 -38.026,43.607c-8.583,9.209 -12.347,16.573 -12.766,23.401c-0.452,7.363 2.856,15.146 12.086,25.053c9.147,9.818 20.278,22.435 31.202,35.056c23.355,26.981 45.716,53.98 45.716,53.98c4.441,5.198 12.267,5.812 17.464,1.371c5.197,-4.441 5.811,-12.266 1.37,-17.464Z" style="fill:#333;"/></g><g><path d="M989.404,535.608c-0,0 22.362,-26.999 45.716,-53.98c10.924,-12.621 22.055,-25.238 31.202,-35.056c9.23,-9.907 12.539,-17.69 12.087,-25.053c-0.42,-6.828 -4.184,-14.192 -12.767,-23.401c-7.066,-7.581 -21.394,-24.126 -38.026,-43.607c-33.034,-38.695 -75.071,-88.855 -87.772,-103.84c-2.454,-2.987 -6.872,-3.42 -9.859,-0.965c-2.987,2.454 -3.419,6.872 -0.964,9.859c12.244,15.373 52.753,66.818 84.609,106.522c16.265,20.273 30.293,37.49 37.225,45.398c4.058,4.629 6.923,7.637 7.026,10.981c0.035,1.125 -0.707,2.09 -1.53,3.32c-1.266,1.891 -3.059,3.867 -5.294,6.124c-9.601,9.696 -21.309,22.173 -32.804,34.663c-24.341,26.447 -47.683,52.942 -47.683,52.942c-4.441,5.198 -3.827,13.023 1.37,17.464c5.198,4.441 13.023,3.827 17.464,-1.371Z" style="fill:#333;"/></g></g></svg>