<?xml version="1.0" encoding="UTF-8" standalone="no"?>
<!DOCTYPE svg PUBLIC "-//W3C//DTD SVG 1.1//EN" "http://www.w3.org/Graphics/SVG/1.1/DTD/svg11.dtd">
<svg width="100%" height="100%" viewBox="0 0 1689 760" version="1.1" xmlns="http://www.w3.org/2000/svg" xmlns:xlink="http://www.w3.org/1999/xlink" xml:space="preserve" xmlns:serif="http://www.serif.com/" style="fill-rule:evenodd;clip-rule:evenodd;stroke-linecap:round;stroke-linejoin:round;stroke-miterlimit:1.5;">
    <g id="Book" transform="matrix(2.76575,0,0,3.06034,-6649.71,-3145.68)">
        <g transform="matrix(1,0,0,1,0.666667,-6.05569)">
            <path d="M2709.33,1261.32C2728.62,1257.87 2748.16,1256.41 2767.31,1256.38C2780.46,1256.36 2793.4,1257.08 2805.95,1258.34C2822.62,1260.01 2838.54,1262.8 2853.29,1266.3C2870.06,1270.27 2885.35,1275.11 2898.18,1281.08C2899.73,1281.83 2901.6,1281.79 2903.11,1280.98C2904.62,1280.17 2905.55,1278.71 2905.58,1277.13C2905.45,1266.84 2905.3,1255.06 2904.93,1240.38C2904.55,1225.48 2903.95,1207.62 2903.21,1185.3C2903.21,1184.18 2902.2,1183.27 2900.96,1183.27C2899.72,1183.27 2898.71,1184.18 2898.71,1185.3L2895.77,1269.68C2884.08,1264.45 2870.77,1259.82 2856.21,1256.32C2840.91,1252.65 2824.25,1250.19 2806.91,1249.02C2793.94,1248.14 2780.57,1248.06 2767.05,1248.79C2747.52,1249.85 2727.72,1252.66 2708.32,1257.36C2707.11,1257.61 2706.35,1258.7 2706.63,1259.8C2706.91,1260.89 2708.12,1261.57 2709.33,1261.32Z" style="fill:rgb(53,53,53);"/>
        </g>
        <g transform="matrix(1,0,0,1,0.666667,-6.05569)">
            <path d="M2903,1115.83C2904.57,1100.24 2905.47,1092.38 2905.87,1087.45C2906.24,1082.81 2906.29,1080.88 2906.35,1077.88C2906.4,1075.74 2906.36,1073.06 2906.38,1068.42C2906.33,1066.26 2904.85,1064.33 2902.64,1063.52C2897.13,1061.47 2891.53,1059.69 2885.79,1058.37C2880.09,1057.06 2874.26,1056.2 2868.37,1055.56C2866.65,1058.5 2865.51,1059.27 2865.33,1060.38C2865.15,1061.49 2866,1062.52 2867.23,1062.68L2866.73,1065.78C2872.14,1066.61 2877.43,1067.77 2882.68,1069.06C2886.69,1070.04 2890.68,1071.11 2894.6,1072.37C2894.74,1074.87 2894.83,1076.63 2894.94,1078.12C2895.15,1081.04 2895.26,1082.93 2895.64,1087.47C2896.06,1092.39 2896.93,1100.25 2898.51,1115.83C2898.51,1116.96 2899.51,1117.87 2900.75,1117.87C2902,1117.87 2903,1116.95 2903,1115.83Z" style="fill:rgb(53,53,53);"/>
        </g>
        <g transform="matrix(-1,0,0,1,5418.31,-6.05569)">
            <path d="M2708.32,1257.36C2727.72,1252.66 2747.52,1249.85 2767.05,1248.79C2780.57,1248.06 2793.93,1248.14 2806.91,1249.02C2824.25,1250.19 2840.91,1252.65 2856.21,1256.32C2870.76,1259.82 2884.07,1264.44 2895.75,1269.67C2895.75,1269.67 2898.46,1185.3 2898.46,1185.3C2898.46,1184.18 2899.47,1183.27 2900.71,1183.27C2901.95,1183.27 2902.96,1184.17 2902.96,1185.3C2903.74,1208.53 2904.4,1225.97 2904.82,1240.36C2905.24,1254.81 2905.45,1266.16 2905.58,1277.13C2905.55,1278.71 2904.62,1280.17 2903.11,1280.98C2901.6,1281.79 2899.73,1281.83 2898.18,1281.08C2885.35,1275.11 2870.06,1270.27 2853.29,1266.3C2838.54,1262.8 2822.62,1260.01 2805.95,1258.34C2793.4,1257.08 2780.46,1256.36 2767.31,1256.38C2748.16,1256.41 2728.62,1257.87 2709.33,1261.32C2708.12,1261.57 2706.91,1260.89 2706.63,1259.8C2706.35,1258.7 2707.11,1257.61 2708.32,1257.36Z" style="fill:rgb(53,53,53);"/>
        </g>
        <g transform="matrix(-1,0,0,1,5418.31,-6.05569)">
            <path d="M2898.46,1117.02C2896.89,1101.34 2896.01,1093.3 2895.58,1087.94C2895.24,1083.77 2895.09,1081.34 2894.9,1078.33C2894.79,1076.65 2894.7,1074.79 2894.58,1072.37C2890.66,1071.11 2886.69,1070.04 2882.68,1069.06C2877.43,1067.77 2872.14,1066.61 2866.73,1065.78C2866,1062.52 2865.15,1061.49 2865.33,1060.38C2865.51,1059.27 2866.65,1058.5 2867.88,1058.66L2868.37,1055.56C2874.26,1056.2 2880.09,1057.06 2885.79,1058.37C2891.53,1059.69 2897.13,1061.47 2902.64,1063.52C2904.86,1064.33 2906.34,1066.25 2906.39,1068.42C2906.38,1072.85 2906.41,1075.68 2906.35,1078.15C2906.27,1081.21 2906.17,1083.69 2905.84,1087.93C2905.41,1093.29 2904.5,1101.33 2902.96,1117.02C2902.96,1118.14 2901.95,1119.05 2900.71,1119.05C2899.47,1119.05 2898.46,1118.14 2898.46,1117.02Z" style="fill:rgb(53,53,53);"/>
        </g>
        <g transform="matrix(1,0,0,1,0.666667,-6.05569)">
            <path d="M2706.67,1213.97L2704.72,1257.53C2704.7,1258.85 2705.47,1260.09 2706.74,1260.76C2708,1261.44 2709.57,1261.45 2710.85,1260.8C2721.64,1255.67 2733.61,1250.28 2747.68,1245.61C2758.97,1241.86 2771.64,1238.7 2786.32,1236.63C2796.04,1235.26 2806.62,1234.29 2818.28,1234.07C2832.73,1233.8 2848.78,1234.5 2866.82,1236.81C2867.91,1236.98 2869.03,1236.7 2869.88,1236.06C2870.72,1235.42 2871.22,1234.47 2871.22,1233.47L2869.72,1194.16C2869.72,1193.04 2868.71,1192.13 2867.47,1192.13C2866.22,1192.14 2865.22,1193.05 2865.22,1194.17L2863.85,1229.35C2847.13,1226.5 2832.04,1225.02 2818.3,1224.72C2806.03,1224.46 2794.84,1225.08 2784.6,1226.47C2769.02,1228.57 2755.63,1232.3 2743.83,1236.69C2732.09,1241.06 2721.97,1246.18 2712.76,1251.11C2712.63,1246.65 2712.54,1243.97 2712.38,1240.13C2712.18,1235.26 2711.84,1228.55 2711.16,1213.97C2711.16,1212.85 2710.15,1211.94 2708.91,1211.94C2707.67,1211.94 2706.66,1212.85 2706.67,1213.97Z" style="fill:rgb(53,53,53);"/>
        </g>
        <g transform="matrix(-1,0,0,1,5418.42,-6.05569)">
            <path d="M2711.16,1213.97C2711.84,1228.55 2712.18,1235.26 2712.38,1240.13C2712.54,1243.97 2712.63,1246.65 2712.76,1251.11C2721.97,1246.18 2732.09,1241.06 2743.83,1236.69C2755.63,1232.3 2769.02,1228.57 2784.6,1226.47C2794.84,1225.08 2806.03,1224.46 2818.3,1224.72C2832.04,1225.02 2847.13,1226.5 2863.85,1229.35C2863.85,1229.35 2865.22,1194.17 2865.22,1194.17C2865.22,1193.05 2866.22,1192.14 2867.47,1192.13C2868.71,1192.13 2869.72,1193.04 2869.72,1194.16L2871.22,1233.47C2871.22,1234.47 2870.72,1235.42 2869.88,1236.06C2869.03,1236.7 2867.91,1236.98 2866.82,1236.81C2848.78,1234.5 2832.73,1233.8 2818.28,1234.07C2806.62,1234.29 2796.04,1235.26 2786.32,1236.63C2771.64,1238.7 2758.97,1241.86 2747.68,1245.61C2733.61,1250.28 2721.64,1255.67 2710.85,1260.8C2709.57,1261.45 2708,1261.44 2706.74,1260.76C2705.47,1260.09 2704.7,1258.85 2704.72,1257.53L2706.67,1213.97C2706.66,1212.85 2707.67,1211.94 2708.91,1211.94C2710.15,1211.94 2711.16,1212.85 2711.16,1213.97Z" style="fill:rgb(53,53,53);"/>
        </g>
        <g transform="matrix(-1,0,0,1,5418.3,-6.78088)">
            <path d="M2865.34,1108.15L2862.5,1052.03C2853.5,1048.94 2840.41,1046.22 2825.05,1045.31C2818.54,1044.93 2811.63,1044.86 2804.41,1045.24C2797.81,1045.59 2790.95,1046.28 2783.93,1047.5C2773.66,1049.29 2763.06,1052.15 2752.4,1056.48C2738.7,1062.05 2724.88,1069.9 2711.63,1080.99C2711.63,1080.99 2711.07,1094.62 2711.07,1094.62C2711.07,1095.74 2710.06,1096.65 2708.82,1096.65C2707.58,1096.65 2706.57,1095.74 2706.58,1094.62L2705.96,1079.84C2705.95,1079.15 2706.26,1078.49 2706.79,1078C2720.06,1065.19 2734.17,1055.79 2748.44,1049.09C2759.56,1043.87 2770.77,1040.28 2781.7,1038C2794.01,1035.43 2805.98,1034.49 2817.04,1034.72C2826.65,1034.92 2835.59,1036.04 2843.51,1037.58C2853.99,1039.63 2862.69,1042.5 2868.99,1045.26C2870.66,1045.94 2871.73,1047.44 2871.74,1049.09C2871.26,1064.22 2871.39,1067.39 2870.8,1084.52C2870.6,1090.4 2870.27,1097.92 2869.83,1108.14C2869.84,1109.27 2868.83,1110.18 2867.59,1110.18C2866.35,1110.18 2865.34,1109.28 2865.34,1108.15Z" style="fill:rgb(53,53,53);"/>
        </g>
        <g transform="matrix(1,0,0,1,0.667515,-6.78088)">
            <path d="M2869.83,1108.14C2870.27,1097.92 2870.6,1090.4 2870.8,1084.52C2871.39,1067.39 2871.26,1064.22 2871.74,1049.09C2871.73,1047.44 2870.66,1045.94 2868.99,1045.26C2862.69,1042.5 2853.99,1039.63 2843.51,1037.58C2835.59,1036.04 2826.65,1034.92 2817.04,1034.72C2805.98,1034.49 2794.01,1035.43 2781.7,1038C2770.77,1040.28 2759.56,1043.87 2748.44,1049.09C2734.17,1055.79 2720.06,1065.19 2706.79,1078C2706.26,1078.49 2705.95,1079.15 2705.96,1079.84L2706.58,1094.62C2706.57,1095.74 2707.58,1096.65 2708.82,1096.65C2710.06,1096.65 2711.07,1095.74 2711.07,1094.62L2711.63,1080.99C2724.88,1069.9 2738.7,1062.05 2752.4,1056.48C2763.06,1052.15 2773.66,1049.29 2783.93,1047.5C2790.95,1046.28 2797.81,1045.59 2804.41,1045.24C2811.63,1044.86 2818.54,1044.93 2825.05,1045.31C2840.41,1046.22 2853.5,1048.94 2862.5,1052.03C2862.5,1052.03 2865.34,1108.15 2865.34,1108.15C2865.34,1109.28 2866.35,1110.18 2867.59,1110.18C2868.83,1110.18 2869.84,1109.27 2869.83,1108.14Z" style="fill:rgb(53,53,53);"/>
        </g>
    </g>
    <g transform="matrix(0.582924,0,0,0.582924,-376.569,-172.651)">
        <g transform="matrix(403.069,0,0,403.069,637.133,1041.67)">
            <path d="M0.022,-0L0.022,-0.01L0.043,-0.018C0.057,-0.023 0.066,-0.03 0.07,-0.038C0.073,-0.045 0.075,-0.056 0.075,-0.069L0.075,-0.591C0.075,-0.604 0.073,-0.615 0.069,-0.623C0.065,-0.631 0.056,-0.637 0.043,-0.642L0.022,-0.65L0.022,-0.66L0.277,-0.66L0.277,-0.65L0.259,-0.642C0.246,-0.637 0.238,-0.631 0.233,-0.623C0.228,-0.614 0.226,-0.603 0.226,-0.59L0.226,-0.02L0.38,-0.02C0.405,-0.02 0.423,-0.026 0.435,-0.038C0.446,-0.05 0.457,-0.067 0.468,-0.09L0.507,-0.174L0.517,-0.174L0.508,-0L0.022,-0Z" style="fill:rgb(53,53,53);fill-rule:nonzero;"/>
        </g>
        <g transform="matrix(403.069,0,0,403.069,849.148,1041.67)">
            <path d="M0.335,0.018C0.294,0.018 0.255,0.011 0.218,-0.004C0.18,-0.019 0.146,-0.041 0.117,-0.07C0.087,-0.098 0.063,-0.135 0.046,-0.178C0.029,-0.221 0.02,-0.272 0.02,-0.33C0.02,-0.387 0.029,-0.438 0.046,-0.481C0.063,-0.524 0.087,-0.561 0.117,-0.59C0.147,-0.619 0.181,-0.641 0.219,-0.656C0.256,-0.671 0.295,-0.678 0.335,-0.678C0.376,-0.678 0.415,-0.671 0.453,-0.657C0.49,-0.642 0.524,-0.62 0.554,-0.592C0.583,-0.563 0.607,-0.526 0.624,-0.483C0.641,-0.439 0.65,-0.388 0.65,-0.33C0.65,-0.273 0.641,-0.223 0.624,-0.18C0.607,-0.136 0.583,-0.099 0.554,-0.071C0.524,-0.042 0.49,-0.02 0.453,-0.005C0.415,0.011 0.376,0.018 0.335,0.018ZM0.335,-0.003C0.372,-0.003 0.401,-0.013 0.424,-0.033C0.447,-0.052 0.463,-0.086 0.474,-0.134C0.484,-0.181 0.489,-0.247 0.489,-0.33C0.489,-0.414 0.484,-0.48 0.474,-0.528C0.463,-0.575 0.447,-0.609 0.424,-0.629C0.401,-0.648 0.372,-0.658 0.335,-0.658C0.299,-0.658 0.27,-0.648 0.247,-0.629C0.224,-0.609 0.208,-0.575 0.198,-0.528C0.187,-0.48 0.182,-0.414 0.182,-0.33C0.182,-0.247 0.187,-0.181 0.198,-0.134C0.208,-0.086 0.224,-0.052 0.247,-0.033C0.27,-0.013 0.299,-0.003 0.335,-0.003Z" style="fill:rgb(53,53,53);fill-rule:nonzero;"/>
        </g>
        <g transform="matrix(403.069,0,0,403.069,1125.65,1041.67)">
            <path d="M0.335,0.018C0.294,0.018 0.255,0.011 0.218,-0.004C0.18,-0.019 0.146,-0.041 0.117,-0.07C0.087,-0.098 0.063,-0.135 0.046,-0.178C0.029,-0.221 0.02,-0.272 0.02,-0.33C0.02,-0.387 0.029,-0.438 0.046,-0.481C0.063,-0.524 0.087,-0.561 0.117,-0.59C0.147,-0.619 0.181,-0.641 0.219,-0.656C0.256,-0.671 0.295,-0.678 0.335,-0.678C0.376,-0.678 0.415,-0.671 0.453,-0.657C0.49,-0.642 0.524,-0.62 0.554,-0.592C0.583,-0.563 0.607,-0.526 0.624,-0.483C0.641,-0.439 0.65,-0.388 0.65,-0.33C0.65,-0.273 0.641,-0.223 0.624,-0.18C0.607,-0.136 0.583,-0.099 0.554,-0.071C0.524,-0.042 0.49,-0.02 0.453,-0.005C0.415,0.011 0.376,0.018 0.335,0.018ZM0.335,-0.003C0.372,-0.003 0.401,-0.013 0.424,-0.033C0.447,-0.052 0.463,-0.086 0.474,-0.134C0.484,-0.181 0.489,-0.247 0.489,-0.33C0.489,-0.414 0.484,-0.48 0.474,-0.528C0.463,-0.575 0.447,-0.609 0.424,-0.629C0.401,-0.648 0.372,-0.658 0.335,-0.658C0.299,-0.658 0.27,-0.648 0.247,-0.629C0.224,-0.609 0.208,-0.575 0.198,-0.528C0.187,-0.48 0.182,-0.414 0.182,-0.33C0.182,-0.247 0.187,-0.181 0.198,-0.134C0.208,-0.086 0.224,-0.052 0.247,-0.033C0.27,-0.013 0.299,-0.003 0.335,-0.003Z" style="fill:rgb(53,53,53);fill-rule:nonzero;"/>
        </g>
        <g transform="matrix(403.069,0,0,403.069,1388.86,1041.67)">
            <path d="M0.022,-0L0.022,-0.01L0.043,-0.018C0.056,-0.023 0.065,-0.029 0.069,-0.037C0.073,-0.045 0.075,-0.055 0.075,-0.068L0.075,-0.591C0.075,-0.604 0.073,-0.615 0.069,-0.623C0.065,-0.631 0.056,-0.637 0.043,-0.642L0.022,-0.65L0.022,-0.66L0.271,-0.66L0.271,-0.65L0.249,-0.641C0.238,-0.637 0.23,-0.631 0.226,-0.623C0.222,-0.615 0.22,-0.604 0.22,-0.59L0.22,-0.067C0.22,-0.054 0.222,-0.043 0.227,-0.036C0.231,-0.029 0.239,-0.023 0.252,-0.018L0.271,-0.01L0.271,-0L0.022,-0ZM0.391,-0L0.391,-0.01L0.404,-0.014C0.417,-0.018 0.424,-0.025 0.425,-0.034C0.426,-0.043 0.422,-0.054 0.413,-0.066L0.221,-0.339L0.474,-0.597C0.483,-0.606 0.489,-0.615 0.49,-0.624C0.491,-0.633 0.484,-0.639 0.47,-0.644L0.453,-0.65L0.453,-0.66L0.599,-0.66L0.599,-0.65L0.573,-0.642C0.558,-0.637 0.547,-0.632 0.538,-0.625C0.529,-0.618 0.519,-0.609 0.508,-0.598L0.329,-0.415L0.564,-0.072C0.574,-0.057 0.584,-0.045 0.593,-0.036C0.602,-0.027 0.614,-0.019 0.631,-0.014L0.645,-0.01L0.645,-0L0.391,-0Z" style="fill:rgb(53,53,53);fill-rule:nonzero;"/>
        </g>
        <g transform="matrix(403.069,0,0,403.069,1652.47,1041.67)">
            <path d="M0.237,0.018C0.2,0.018 0.163,0.014 0.125,0.005C0.087,-0.005 0.055,-0.016 0.03,-0.031L0.035,-0.167L0.045,-0.167L0.076,-0.102C0.085,-0.083 0.095,-0.067 0.106,-0.053C0.117,-0.038 0.131,-0.027 0.15,-0.019C0.163,-0.012 0.176,-0.008 0.189,-0.006C0.201,-0.003 0.215,-0.002 0.23,-0.002C0.271,-0.002 0.303,-0.013 0.327,-0.035C0.35,-0.057 0.362,-0.085 0.362,-0.12C0.362,-0.153 0.354,-0.178 0.338,-0.197C0.322,-0.215 0.296,-0.233 0.261,-0.25L0.22,-0.268C0.163,-0.293 0.118,-0.323 0.086,-0.356C0.053,-0.389 0.037,-0.432 0.037,-0.487C0.037,-0.526 0.047,-0.56 0.068,-0.589C0.088,-0.618 0.116,-0.64 0.153,-0.655C0.189,-0.67 0.231,-0.678 0.28,-0.678C0.315,-0.678 0.349,-0.673 0.381,-0.664C0.412,-0.655 0.44,-0.642 0.463,-0.626L0.457,-0.506L0.447,-0.506L0.406,-0.581C0.395,-0.604 0.383,-0.621 0.372,-0.631C0.361,-0.64 0.348,-0.647 0.333,-0.651C0.324,-0.654 0.316,-0.656 0.309,-0.657C0.302,-0.658 0.292,-0.658 0.281,-0.658C0.247,-0.658 0.218,-0.648 0.195,-0.629C0.172,-0.609 0.16,-0.582 0.16,-0.549C0.16,-0.515 0.169,-0.488 0.187,-0.468C0.205,-0.447 0.231,-0.429 0.266,-0.413L0.312,-0.393C0.376,-0.365 0.422,-0.335 0.45,-0.304C0.478,-0.272 0.492,-0.231 0.492,-0.181C0.492,-0.122 0.47,-0.075 0.426,-0.038C0.381,-0 0.318,0.018 0.237,0.018Z" style="fill:rgb(53,53,53);fill-rule:nonzero;"/>
        </g>
        <g transform="matrix(403.069,0,0,403.069,2301.81,1041.67)">
            <path d="M0.022,-0L0.022,-0.01L0.04,-0.017C0.053,-0.022 0.063,-0.029 0.068,-0.037C0.073,-0.045 0.075,-0.056 0.075,-0.069L0.075,-0.591C0.075,-0.605 0.073,-0.616 0.068,-0.624C0.063,-0.632 0.053,-0.638 0.04,-0.643L0.022,-0.65L0.022,-0.66L0.309,-0.66C0.39,-0.66 0.449,-0.645 0.485,-0.616C0.521,-0.586 0.539,-0.548 0.539,-0.503C0.539,-0.469 0.526,-0.438 0.5,-0.411C0.473,-0.383 0.428,-0.363 0.364,-0.352C0.437,-0.344 0.491,-0.325 0.525,-0.295C0.559,-0.264 0.576,-0.227 0.576,-0.184C0.576,-0.163 0.571,-0.141 0.562,-0.12C0.553,-0.098 0.537,-0.078 0.515,-0.06C0.492,-0.042 0.462,-0.028 0.423,-0.017C0.384,-0.006 0.335,-0 0.276,-0L0.022,-0ZM0.223,-0.353L0.266,-0.353C0.311,-0.353 0.343,-0.363 0.363,-0.384C0.382,-0.405 0.392,-0.441 0.392,-0.492C0.392,-0.545 0.383,-0.583 0.365,-0.606C0.347,-0.629 0.318,-0.64 0.277,-0.64L0.223,-0.64L0.223,-0.353ZM0.223,-0.02L0.273,-0.02C0.323,-0.02 0.36,-0.033 0.385,-0.06C0.409,-0.087 0.421,-0.128 0.421,-0.185C0.421,-0.238 0.409,-0.276 0.386,-0.299C0.363,-0.322 0.324,-0.333 0.271,-0.333L0.223,-0.333L0.223,-0.02Z" style="fill:rgb(53,53,53);fill-rule:nonzero;"/>
        </g>
        <g transform="matrix(403.069,0,0,403.069,2541.23,1041.67)">
            <path d="M0.335,0.018C0.294,0.018 0.255,0.011 0.218,-0.004C0.18,-0.019 0.146,-0.041 0.117,-0.07C0.087,-0.098 0.063,-0.135 0.046,-0.178C0.029,-0.221 0.02,-0.272 0.02,-0.33C0.02,-0.387 0.029,-0.438 0.046,-0.481C0.063,-0.524 0.087,-0.561 0.117,-0.59C0.147,-0.619 0.181,-0.641 0.219,-0.656C0.256,-0.671 0.295,-0.678 0.335,-0.678C0.376,-0.678 0.415,-0.671 0.453,-0.657C0.49,-0.642 0.524,-0.62 0.554,-0.592C0.583,-0.563 0.607,-0.526 0.624,-0.483C0.641,-0.439 0.65,-0.388 0.65,-0.33C0.65,-0.273 0.641,-0.223 0.624,-0.18C0.607,-0.136 0.583,-0.099 0.554,-0.071C0.524,-0.042 0.49,-0.02 0.453,-0.005C0.415,0.011 0.376,0.018 0.335,0.018ZM0.335,-0.003C0.372,-0.003 0.401,-0.013 0.424,-0.033C0.447,-0.052 0.463,-0.086 0.474,-0.134C0.484,-0.181 0.489,-0.247 0.489,-0.33C0.489,-0.414 0.484,-0.48 0.474,-0.528C0.463,-0.575 0.447,-0.609 0.424,-0.629C0.401,-0.648 0.372,-0.658 0.335,-0.658C0.299,-0.658 0.27,-0.648 0.247,-0.629C0.224,-0.609 0.208,-0.575 0.198,-0.528C0.187,-0.48 0.182,-0.414 0.182,-0.33C0.182,-0.247 0.187,-0.181 0.198,-0.134C0.208,-0.086 0.224,-0.052 0.247,-0.033C0.27,-0.013 0.299,-0.003 0.335,-0.003Z" style="fill:rgb(53,53,53);fill-rule:nonzero;"/>
        </g>
        <g transform="matrix(403.069,0,0,403.069,2817.74,1041.67)">
            <path d="M0.335,0.018C0.294,0.018 0.255,0.011 0.218,-0.004C0.18,-0.019 0.146,-0.041 0.117,-0.07C0.087,-0.098 0.063,-0.135 0.046,-0.178C0.029,-0.221 0.02,-0.272 0.02,-0.33C0.02,-0.387 0.029,-0.438 0.046,-0.481C0.063,-0.524 0.087,-0.561 0.117,-0.59C0.147,-0.619 0.181,-0.641 0.219,-0.656C0.256,-0.671 0.295,-0.678 0.335,-0.678C0.376,-0.678 0.415,-0.671 0.453,-0.657C0.49,-0.642 0.524,-0.62 0.554,-0.592C0.583,-0.563 0.607,-0.526 0.624,-0.483C0.641,-0.439 0.65,-0.388 0.65,-0.33C0.65,-0.273 0.641,-0.223 0.624,-0.18C0.607,-0.136 0.583,-0.099 0.554,-0.071C0.524,-0.042 0.49,-0.02 0.453,-0.005C0.415,0.011 0.376,0.018 0.335,0.018ZM0.335,-0.003C0.372,-0.003 0.401,-0.013 0.424,-0.033C0.447,-0.052 0.463,-0.086 0.474,-0.134C0.484,-0.181 0.489,-0.247 0.489,-0.33C0.489,-0.414 0.484,-0.48 0.474,-0.528C0.463,-0.575 0.447,-0.609 0.424,-0.629C0.401,-0.648 0.372,-0.658 0.335,-0.658C0.299,-0.658 0.27,-0.648 0.247,-0.629C0.224,-0.609 0.208,-0.575 0.198,-0.528C0.187,-0.48 0.182,-0.414 0.182,-0.33C0.182,-0.247 0.187,-0.181 0.198,-0.134C0.208,-0.086 0.224,-0.052 0.247,-0.033C0.27,-0.013 0.299,-0.003 0.335,-0.003Z" style="fill:rgb(53,53,53);fill-rule:nonzero;"/>
        </g>
        <g transform="matrix(403.069,0,0,403.069,3080.94,1041.67)">
            <path d="M0.022,-0L0.022,-0.01L0.043,-0.018C0.056,-0.023 0.065,-0.029 0.069,-0.037C0.073,-0.045 0.075,-0.055 0.075,-0.068L0.075,-0.591C0.075,-0.604 0.073,-0.615 0.069,-0.623C0.065,-0.631 0.056,-0.637 0.043,-0.642L0.022,-0.65L0.022,-0.66L0.271,-0.66L0.271,-0.65L0.249,-0.641C0.238,-0.637 0.23,-0.631 0.226,-0.623C0.222,-0.615 0.22,-0.604 0.22,-0.59L0.22,-0.067C0.22,-0.054 0.222,-0.043 0.227,-0.036C0.231,-0.029 0.239,-0.023 0.252,-0.018L0.271,-0.01L0.271,-0L0.022,-0ZM0.391,-0L0.391,-0.01L0.404,-0.014C0.417,-0.018 0.424,-0.025 0.425,-0.034C0.426,-0.043 0.422,-0.054 0.413,-0.066L0.221,-0.339L0.474,-0.597C0.483,-0.606 0.489,-0.615 0.49,-0.624C0.491,-0.633 0.484,-0.639 0.47,-0.644L0.453,-0.65L0.453,-0.66L0.599,-0.66L0.599,-0.65L0.573,-0.642C0.558,-0.637 0.547,-0.632 0.538,-0.625C0.529,-0.618 0.519,-0.609 0.508,-0.598L0.329,-0.415L0.564,-0.072C0.574,-0.057 0.584,-0.045 0.593,-0.036C0.602,-0.027 0.614,-0.019 0.631,-0.014L0.645,-0.01L0.645,-0L0.391,-0Z" style="fill:rgb(53,53,53);fill-rule:nonzero;"/>
        </g>
        <g transform="matrix(403.069,0,0,403.069,3344.55,1041.67)">
            <path d="M0.237,0.018C0.2,0.018 0.163,0.014 0.125,0.005C0.087,-0.005 0.055,-0.016 0.03,-0.031L0.035,-0.167L0.045,-0.167L0.076,-0.102C0.085,-0.083 0.095,-0.067 0.106,-0.053C0.117,-0.038 0.131,-0.027 0.15,-0.019C0.163,-0.012 0.176,-0.008 0.189,-0.006C0.201,-0.003 0.215,-0.002 0.23,-0.002C0.271,-0.002 0.303,-0.013 0.327,-0.035C0.35,-0.057 0.362,-0.085 0.362,-0.12C0.362,-0.153 0.354,-0.178 0.338,-0.197C0.322,-0.215 0.296,-0.233 0.261,-0.25L0.22,-0.268C0.163,-0.293 0.118,-0.323 0.086,-0.356C0.053,-0.389 0.037,-0.432 0.037,-0.487C0.037,-0.526 0.047,-0.56 0.068,-0.589C0.088,-0.618 0.116,-0.64 0.153,-0.655C0.189,-0.67 0.231,-0.678 0.28,-0.678C0.315,-0.678 0.349,-0.673 0.381,-0.664C0.412,-0.655 0.44,-0.642 0.463,-0.626L0.457,-0.506L0.447,-0.506L0.406,-0.581C0.395,-0.604 0.383,-0.621 0.372,-0.631C0.361,-0.64 0.348,-0.647 0.333,-0.651C0.324,-0.654 0.316,-0.656 0.309,-0.657C0.302,-0.658 0.292,-0.658 0.281,-0.658C0.247,-0.658 0.218,-0.648 0.195,-0.629C0.172,-0.609 0.16,-0.582 0.16,-0.549C0.16,-0.515 0.169,-0.488 0.187,-0.468C0.205,-0.447 0.231,-0.429 0.266,-0.413L0.312,-0.393C0.376,-0.365 0.422,-0.335 0.45,-0.304C0.478,-0.272 0.492,-0.231 0.492,-0.181C0.492,-0.122 0.47,-0.075 0.426,-0.038C0.381,-0 0.318,0.018 0.237,0.018Z" style="fill:rgb(53,53,53);fill-rule:nonzero;"/>
        </g>
    </g>
    <g transform="matrix(1.20054,0,0,1.20054,-14506.1,2464.48)">
        <g transform="matrix(0.622711,0.525061,-0.526226,0.624092,3936.89,-7302.73)">
            <ellipse cx="12710.5" cy="-1654.5" rx="30.5" ry="38.5" style="fill:none;stroke:rgb(53,53,53);stroke-width:14.9px;"/>
        </g>
        <g transform="matrix(-0.622711,0.525061,0.526226,0.624092,21635.1,-7302.73)">
            <ellipse cx="12710.5" cy="-1654.5" rx="30.5" ry="38.5" style="fill:none;stroke:rgb(53,53,53);stroke-width:14.9px;"/>
        </g>
        <g transform="matrix(-1,0,0,1,25572,0)">
            <path d="M12736.9,-1689.35C12743.5,-1699.16 12767.6,-1725.58 12785.3,-1747.51C12788.5,-1751.43 12791.4,-1755.21 12794,-1758.72C12749.6,-1810.63 12726.3,-1843.36 12711.5,-1859.94C12707.8,-1864.07 12704.7,-1867.16 12702,-1869.21C12699.7,-1870.9 12697.8,-1871.88 12695.9,-1871.8C12694.7,-1871.75 12693.6,-1871.3 12692.4,-1870.53C12692.4,-1870.53 12766,-1781.7 12766,-1781.7C12766.9,-1780.6 12766.8,-1778.94 12765.7,-1778C12764.6,-1777.06 12762.9,-1777.19 12762,-1778.3L12684,-1868.53C12682.8,-1870.06 12682.9,-1872.32 12684.3,-1873.73C12688.1,-1877.61 12691.7,-1879.49 12695.5,-1879.72C12701.3,-1880.09 12708.2,-1875.94 12717.7,-1865.6C12733.2,-1848.95 12757.8,-1815.61 12805.1,-1762.6C12806.8,-1760.72 12806.9,-1757.94 12805.5,-1755.88C12800.9,-1749.2 12794.8,-1741.28 12788.2,-1733.1C12772,-1713.03 12752.7,-1691.32 12747.1,-1682.65C12745.2,-1679.86 12741.5,-1679.08 12738.7,-1680.93C12735.9,-1682.78 12735.1,-1686.55 12736.9,-1689.35Z" style="fill:rgb(53,53,53);"/>
        </g>
        <path d="M12747.1,-1682.65C12752.7,-1691.32 12772,-1713.03 12788.2,-1733.1C12794.8,-1741.28 12800.9,-1749.2 12805.5,-1755.88C12806.9,-1757.94 12806.8,-1760.72 12805.1,-1762.6C12757.8,-1815.61 12733.2,-1848.95 12717.7,-1865.6C12708.2,-1875.94 12701.3,-1880.09 12695.5,-1879.72C12691.7,-1879.49 12688.1,-1877.61 12684.3,-1873.73C12682.9,-1872.32 12682.8,-1870.06 12684,-1868.53L12762,-1778.3C12762.9,-1777.19 12764.6,-1777.06 12765.7,-1778C12766.8,-1778.94 12766.9,-1780.6 12766,-1781.7L12692.4,-1870.53C12693.6,-1871.3 12694.7,-1871.75 12695.9,-1871.8C12697.8,-1871.88 12699.7,-1870.9 12702,-1869.21C12704.7,-1867.16 12707.8,-1864.07 12711.5,-1859.94C12726.3,-1843.36 12749.6,-1810.63 12794,-1758.72C12791.4,-1755.21 12788.5,-1751.43 12785.3,-1747.51C12767.6,-1725.58 12743.5,-1699.16 12736.9,-1689.35C12735.1,-1686.55 12735.9,-1682.78 12738.7,-1680.93C12741.5,-1679.08 12745.2,-1679.86 12747.1,-1682.65Z" style="fill:rgb(53,53,53);"/>
    </g>
</svg>
